<svg width="43" height="43" viewBox="0 0 43 43" fill="none" xmlns="http://www.w3.org/2000/svg">
<g clip-path="url(#clip0_97_308)">
<path d="M42.3091 0.202263C37.9484 1.71923 33.6296 3.32513 29.227 4.71132C27.3816 5.2937 26.2251 6.30327 25.2745 7.96496C22.2796 13.1959 19.1154 18.3414 16.049 23.5374C15.7246 24.0867 15.4926 24.1843 14.9466 23.8461C14.1355 23.3422 13.2808 22.9045 12.4226 22.4825C11.9412 22.2454 11.7249 21.9961 11.7092 21.3858C11.6915 20.6949 11.405 20.038 10.9106 19.5549C10.4162 19.0717 9.75283 18.8003 9.06141 18.7982C8.35688 18.7796 7.67212 19.0324 7.14877 19.5043C6.62543 19.9761 6.30353 20.631 6.24963 21.3335C6.14672 22.7284 7.12176 24.1442 8.4823 24.1826C9.47828 24.2087 9.82017 24.697 10.1708 25.4206C10.5877 26.2802 11.4197 27.1294 11.3918 27.9611C11.3639 28.7928 10.1516 29.3124 9.50968 30.1581C10.8092 30.8119 12.0616 31.41 13.2791 32.0761C13.7901 32.3533 14.1756 32.4021 14.5123 31.8773C14.8001 31.4274 15.1298 31.4937 15.5397 31.7326C16.2897 32.172 17.0554 32.5904 17.8369 32.9671C18.4195 33.2478 18.7544 33.5303 18.7648 34.3044C18.784 35.6994 20.0364 36.7455 21.4353 36.7455C22.1115 36.7508 22.7659 36.507 23.2736 36.0606C23.7814 35.6142 24.1068 34.9964 24.1878 34.3254C24.3483 32.9305 23.4587 31.4728 22.0807 31.3891C20.9103 31.3193 20.5231 30.6916 20.1254 29.8355C19.8509 29.2273 19.5326 28.6399 19.173 28.0779C18.798 27.5077 18.9445 27.2479 19.5097 26.9131C25.2501 23.5113 30.9696 20.0763 36.703 16.6657C37.1334 16.434 37.4581 16.0457 37.61 15.5812C38.6392 12.563 39.7032 9.55343 40.7497 6.54041C41.4946 4.39224 42.2341 2.24407 43.0086 0C42.6859 0.0906695 42.5028 0.137748 42.3091 0.202263ZM9.07885 20.8017C8.98473 20.8143 8.88899 20.8064 8.79822 20.7785C8.70745 20.7506 8.62381 20.7034 8.55303 20.6401C8.48226 20.5768 8.42603 20.4989 8.38823 20.4118C8.35043 20.3247 8.33194 20.2305 8.33404 20.1356C8.31507 19.9455 8.37242 19.7557 8.49346 19.6079C8.61449 19.4601 8.7893 19.3664 8.97944 19.3475C9.16957 19.3285 9.35944 19.3858 9.5073 19.5068C9.65516 19.6278 9.74887 19.8025 9.76783 19.9926C9.75911 20.5244 9.49922 20.7773 9.07885 20.8017ZM21.5313 31.8389C21.9796 31.8581 22.1906 32.1336 22.2569 32.5573C22.1784 32.9618 21.9778 33.2705 21.533 33.2757C21.4309 33.2866 21.3275 33.2742 21.2309 33.2394C21.1342 33.2046 21.0467 33.1483 20.975 33.0747C20.9032 33.0012 20.8492 32.9123 20.8168 32.8148C20.7845 32.7174 20.7747 32.6138 20.7882 32.512C20.7854 32.4168 20.8033 32.322 20.8406 32.2344C20.878 32.1467 20.9339 32.0682 21.0045 32.0042C21.0752 31.9403 21.1588 31.8924 21.2498 31.8638C21.3407 31.8353 21.4367 31.8268 21.5313 31.8389ZM14.0152 28.9898C14.4617 26.5487 13.8791 26.9532 16.4083 26.5871C16.0385 29.1188 16.4676 28.5295 14.0152 28.9898ZM31.3533 11.8376C28.8136 14.5263 26.2001 17.1418 23.5128 19.684L18.2416 25.044L17.9991 24.8086L23.3157 19.4782C25.8553 16.7942 28.4665 14.1822 31.1492 11.6423C32.8935 9.85333 34.6378 8.06377 36.3821 6.27363L36.6402 6.53169L31.3533 11.8376ZM37.4095 3.24841C34.4581 4.43234 31.5138 5.62499 28.5485 6.80021C28.1299 6.96586 27.931 7.30412 27.7078 7.6389C25.0797 11.5912 22.4517 15.5434 19.8236 19.4957L17.0049 23.8879L16.7973 23.7571L19.6527 19.3109C22.2307 15.1587 24.8065 11.007 27.3798 6.85601C27.5434 6.58327 27.8017 6.38029 28.1055 6.28583C31.1626 5.23151 34.2192 4.17312 37.2752 3.11066C37.9537 2.66777 38.7491 2.54921 39.5078 2.32602C38.8508 2.72211 38.1456 3.03211 37.4095 3.24841Z" fill="#F6F7FB"/>
<path d="M3.02117 35.3787C1.19491 35.7274 -0.149934 37.5722 0.0122836 39.4118C0.0901896 40.3614 0.512641 41.2497 1.20013 41.9097C1.88761 42.5696 2.79272 42.9556 3.74505 42.995C5.56956 43.0839 7.40803 41.736 7.5999 39.9192C7.6314 39.4512 7.76104 38.9952 7.98042 38.5806C8.19979 38.166 8.50398 37.8023 8.87321 37.5129C8.96739 37.4139 9.05317 37.3071 9.12964 37.1938C8.18773 36.7231 7.21091 36.3761 6.40854 35.7989C5.31314 35.023 4.18111 35.1555 3.02117 35.3787ZM3.93517 37.9611C3.80309 37.9638 3.6719 37.939 3.54994 37.8882C3.42799 37.8375 3.31796 37.7618 3.22687 37.6662C3.13579 37.5705 3.06564 37.457 3.02091 37.3327C2.97618 37.2084 2.95784 37.0762 2.96708 36.9445C2.96708 36.315 3.35606 35.8983 4.01365 35.9123C4.67125 35.9262 4.96255 36.3586 5.04627 36.9375C4.92766 37.5984 4.58927 37.9942 3.93517 37.9611Z" fill="#F6F7FB"/>
<path d="M6.51652 33.0838C6.07696 33.504 5.59903 33.8824 5.12109 34.3043C5.33738 34.463 5.37925 34.5048 5.42983 34.531C6.28221 34.9657 7.13517 35.3982 7.9887 35.8283C9.83764 36.7594 9.83939 36.7576 11.2034 35.1622C11.2213 35.1256 11.2348 35.0869 11.2435 35.0471C9.90393 34.3741 8.55558 33.7045 7.21423 33.0175C6.94212 32.8763 6.75374 32.8571 6.51652 33.0838Z" fill="#F6F7FB"/>
<path d="M8.70042 30.9065C8.29924 31.3895 7.7498 31.74 7.42188 32.3015C7.5056 32.3555 7.55095 32.3921 7.5963 32.4183C8.39867 32.8216 9.20161 33.2244 10.0051 33.6266C11.9239 34.5891 11.9239 34.5891 13.4135 32.9292C11.9849 32.2125 10.6401 31.5343 9.29872 30.8612C9.08243 30.7392 8.89753 30.6694 8.70042 30.9065Z" fill="#F6F7FB"/>
<path d="M23.5127 19.6843L23.3139 19.4785C23.2615 19.6616 23.34 19.7174 23.5127 19.6843Z" fill="#F6F7FB"/>
<path d="M31.1475 11.6424L31.3533 11.8377C31.3847 11.6686 31.3393 11.5866 31.1475 11.6424Z" fill="#F6F7FB"/>
<path d="M19.8271 19.4989L19.6527 19.3105C19.5725 19.5006 19.6701 19.5285 19.8271 19.4989Z" fill="#F6F7FB"/>
<path d="M37.2705 3.11081C37.3159 3.15614 37.3595 3.20322 37.4031 3.24856C37.4659 3.10558 37.4449 3.03758 37.2705 3.11081Z" fill="#F6F7FB"/>
</g>
<defs>
<clipPath id="clip0_97_308">
<rect width="43" height="43" fill="white"/>
</clipPath>
</defs>
</svg>
