<svg width="58" height="46" viewBox="0 0 58 46" fill="none" xmlns="http://www.w3.org/2000/svg">
<path d="M19.3934 5.16886L27.3092 8.54044C27.1463 9.03602 27.0033 9.46593 26.9099 9.75452C28.6321 11.3289 30.3643 12.7539 31.9097 14.3601C33.9438 16.4738 35.2866 18.9975 35.7414 21.9491C36.3533 25.9138 34.3887 29.7511 30.839 31.626C27.4304 33.4252 23.8151 33.7556 20.0688 33.2819C19.6457 33.2282 19.2186 33.1884 18.7975 33.1167C17.7116 32.9296 16.9098 33.3105 16.392 34.2592C16.1655 34.2014 15.9093 34.1696 15.6789 34.0721C13.5435 33.1744 11.4121 32.2669 9.28068 31.3593C8.84168 31.1722 8.34111 30.9632 8.72449 30.3621C9.28465 29.4844 8.76422 29.0884 8.10473 28.6565C5.14103 26.7139 2.86065 24.1604 1.24571 20.9878C-1.5412 15.5244 0.471016 9.71074 6.05279 7.24873C9.4972 5.73013 13.0787 5.60474 16.7416 6.18193C17.7765 6.34513 19.1292 7.20494 19.3934 5.16687V5.16886ZM18.5134 7.38606C17.3593 6.76309 16.5032 7.03378 15.6491 7.44975C11.3207 9.55748 8.75826 13.1221 7.4373 17.6322C6.51164 20.7868 6.49774 23.9753 7.83458 27.0463C8.11466 27.6912 8.73243 28.1867 9.19328 28.752L9.50117 28.5609C7.09763 24.445 7.19695 20.2215 8.96683 15.9762C10.7506 11.701 13.7064 8.64592 18.5134 7.38606ZM17.5222 31.9365C18.5313 32.653 19.3696 32.3047 20.1741 31.9206C24.27 29.972 26.8007 26.6602 28.215 22.4427C29.3651 19.0094 29.4188 15.5583 28.0382 12.1548C27.6767 11.2612 27.331 11.0124 26.4531 10.9228C28.7811 15.0428 28.6639 19.2284 26.8861 23.4438C25.1103 27.6553 22.1922 30.6507 17.5202 31.9365H17.5222ZM14.9558 31.3175C15.5736 31.9484 16.1119 31.3653 16.5211 30.9174C17.5242 29.8228 18.5552 28.7261 19.3755 27.4961C21.7811 23.8837 23.4834 19.927 24.4369 15.6936C24.8242 13.97 24.8818 12.1608 24.9851 10.3855C25.0308 9.58137 24.9116 9.57142 24.2521 9.52365C23.9462 17.9904 20.921 25.2411 14.9578 31.3155L14.9558 31.3175ZM21.0004 8.18616C20.9587 8.06674 20.915 7.94534 20.8733 7.82592C20.5197 7.90752 20.0608 7.87568 19.8304 8.09063C18.9882 8.87282 18.136 9.67093 17.4408 10.5805C14.6161 14.2884 12.735 18.482 11.6107 22.9761C11.1201 24.9346 11.1022 27.0164 10.9075 29.0446C10.8539 29.6138 11.132 29.974 11.8213 29.8765C11.3962 25.6949 12.6397 21.8854 14.2169 18.1476C15.808 14.376 17.7149 10.8173 20.9984 8.18815L21.0004 8.18616ZM30.2868 13.8366C32.4182 17.5386 33.3737 21.364 31.6157 25.4839C29.8816 29.5481 26.5405 31.5742 22.2916 32.5893C25.9704 33.6044 30.5967 29.6218 32.1282 26.5627C34.2795 22.2676 33.5266 15.8409 30.2868 13.8347V13.8366ZM13.323 6.8029C13.315 6.70339 13.3091 6.60188 13.3011 6.50236C12.3159 6.62775 11.2671 6.57999 10.3533 6.9064C4.57689 8.97034 1.26955 15.4488 2.87853 21.362C3.33142 23.0239 4.01872 24.5106 5.66941 25.6053C0.578281 17.1804 4.52922 8.75141 13.323 6.8029Z" fill="#F6F7FB"/>
<path d="M26.2318 0.0398061C26.2417 0.318449 26.3371 0.628937 26.2477 0.869764C25.9259 1.73754 25.5425 2.58143 25.183 3.43328C24.8148 4.30238 25.0532 4.91141 25.8981 5.26038C26.5377 5.52708 27.1714 5.80771 27.805 6.08835C27.9242 6.14009 28.0275 6.22767 28.2102 6.34509L27.6302 7.71044L19.7979 4.37469L20.4136 2.92376C21.3492 3.32182 22.263 3.6741 23.1429 4.09804C23.7627 4.39658 24.0905 4.27717 24.3427 3.62634C24.8175 2.40429 25.3558 1.20812 25.8683 0L26.2318 0.0378158V0.0398061Z" fill="#F6F7FB"/>
<path d="M11.5191 34.5738C10.3074 34.0583 9.45718 33.7 8.61296 33.3358C7.58202 32.89 7.56812 32.8322 8.24945 31.8152L16.0242 35.1271L15.5356 36.2814L11.7435 34.6653C11.7435 35.4375 11.819 35.9809 11.7157 36.4884C11.6224 36.9422 11.4396 37.5214 11.0999 37.7463C10.653 38.0429 10.0928 37.9095 9.80877 37.2706C9.53266 36.6516 9.68363 36.2158 10.1961 35.8117C10.5974 35.4953 10.949 35.1171 11.523 34.5777L11.5191 34.5738Z" fill="#F6F7FB"/>
<path d="M9.2513 41.052C9.03279 41.5695 8.83217 42.097 8.57989 42.5965C8.51633 42.7199 8.28392 42.7577 8.13097 42.8354C8.07138 42.6741 7.91843 42.4771 7.9661 42.3577C8.39119 41.2809 8.84011 40.2141 9.31287 39.1593C9.36651 39.0398 9.60686 39.002 9.75981 38.9264C9.81344 39.1175 9.95646 39.3404 9.90482 39.4956C9.72803 40.027 9.48172 40.5365 9.26321 41.054L9.25328 41.0501L9.2513 41.052Z" fill="#F6F7FB"/>
<path d="M39.4306 24.2717L44.4661 21.9888C44.629 22.2833 44.77 22.5361 44.8654 22.7073C46.3572 22.5759 47.7834 22.3769 49.2136 22.343C51.0967 22.2993 52.8706 22.761 54.4617 23.8298C56.599 25.2648 57.5545 27.8661 56.895 30.364C56.2613 32.7623 54.843 34.6193 52.9897 36.1876C52.7792 36.3647 52.5766 36.5498 52.3581 36.717C51.7979 37.1496 51.6284 37.6949 51.8495 38.3531C51.7244 38.4347 51.5973 38.5421 51.4503 38.6098C50.0975 39.2308 48.7408 39.8458 47.3861 40.4608C47.106 40.5882 46.7902 40.7335 46.673 40.2896C46.5022 39.6428 46.089 39.7164 45.5984 39.8398C43.3915 40.3991 41.1945 40.3673 38.9956 39.7523C35.2095 38.6934 33.3403 35.2104 34.6096 31.4965C35.3923 29.2036 36.892 27.4541 38.7572 25.9694C39.2836 25.5494 40.2788 25.2847 39.4326 24.2717H39.4306ZM40.0941 25.6529C39.2975 25.9296 39.0532 26.451 38.8784 27.0362C37.9885 30.0037 38.5566 32.7683 40.11 35.3577C41.1965 37.1688 42.6943 38.564 44.7243 39.2666C45.1494 39.4139 45.654 39.3383 46.1208 39.3661L46.1645 39.1372C43.1769 38.4844 41.2263 36.5996 39.9947 33.9127C38.7532 31.2079 38.5983 28.4772 40.096 25.6509L40.0941 25.6529ZM51.2477 36.8066C52.0243 36.6394 52.225 36.0921 52.3938 35.5428C53.2559 32.7543 52.7951 30.1132 51.4205 27.6094C50.3021 25.5713 48.6951 24.0428 46.4883 23.2148C45.9082 22.9979 45.6401 23.0536 45.217 23.4298C48.1747 24.1204 50.0975 25.9972 51.3132 28.6742C52.5269 31.3472 52.6719 34.0341 51.2457 36.8066H51.2477ZM49.8393 37.754C50.4054 37.7361 50.3657 37.2266 50.3319 36.8384C50.2505 35.8871 50.183 34.9218 49.9585 33.9983C49.301 31.2855 48.1747 28.7578 46.5916 26.465C45.946 25.5315 45.1177 24.7175 44.3251 23.8955C43.9655 23.5233 43.9079 23.575 43.6 23.8676C47.4616 27.697 49.5672 32.2866 49.8373 37.754H49.8393ZM41.556 24.825C41.4806 24.7931 41.4051 24.7613 41.3296 24.7274C41.2144 24.9304 40.9999 25.1335 40.9999 25.3365C41.0018 26.0749 41.0078 26.8272 41.1349 27.5517C41.6554 30.5033 42.8154 33.2201 44.4482 35.7079C45.1594 36.7927 46.1327 37.7062 47.0067 38.6815C47.251 38.9541 47.543 38.98 47.7973 38.6098C45.6401 36.9917 44.3827 34.7446 43.3061 32.3702C42.2195 29.9759 41.3693 27.5238 41.556 24.823V24.825ZM48.2641 22.8844C50.9398 23.4855 53.1586 24.6976 54.3385 27.3228C55.5025 29.9142 55.0039 32.3762 53.6333 34.8322C55.7131 33.5325 55.8482 29.6077 55.0715 27.5497C53.9809 24.6618 50.62 22.2216 48.2641 22.8844ZM37.5614 27.8602L37.4104 27.7388C37.041 28.2602 36.5623 28.7359 36.3179 29.3111C34.7785 32.9474 36.3954 37.332 39.8875 39.1432C40.8688 39.6527 41.8699 39.9732 43.1034 39.6667C36.9119 38.4128 34.6553 32.8718 37.5614 27.8582V27.8602Z" fill="#F6F7FB"/>
<path d="M39.9864 18.8002C40.1214 18.9156 40.3101 19.0072 40.3856 19.1545C40.6558 19.6839 40.8862 20.2332 41.1305 20.7746C41.3808 21.3279 41.7721 21.4798 42.3045 21.2304C42.7077 21.0433 43.1169 20.8661 43.5261 20.687C43.6016 20.6532 43.689 20.6412 43.8241 20.6054L44.2174 21.4752L39.2355 23.7342L38.8184 22.8107C39.4143 22.54 39.9764 22.2613 40.5604 22.0285C40.9716 21.8653 41.057 21.6583 40.8604 21.2543C40.4909 20.4979 40.1592 19.7217 39.8135 18.9535L39.9903 18.7982L39.9864 18.8002Z" fill="#F6F7FB"/>
<path d="M49.8796 40.7972C49.1089 41.1475 48.5706 41.3943 48.0303 41.6352C47.3708 41.9297 47.339 41.9098 47.1543 41.1455L52.1004 38.9025L52.4321 39.6369L50.0187 40.7316C50.3822 41.0679 50.6722 41.2689 50.8669 41.5376C51.0417 41.7785 51.2344 42.1168 51.1926 42.3775C51.139 42.7179 50.8311 42.9249 50.406 42.7816C49.9929 42.6422 49.8538 42.3815 49.8856 41.9636C49.9114 41.6352 49.8856 41.3048 49.8796 40.7972Z" fill="#F6F7FB"/>
<path d="M51.9518 44.6923C52.1008 45.0207 52.2617 45.3451 52.3888 45.6835C52.4206 45.767 52.3372 45.8944 52.3054 45.9999C52.2041 45.9581 52.0432 45.9442 52.0094 45.8705C51.6856 45.2018 51.3797 44.5231 51.0858 43.8404C51.052 43.7628 51.1394 43.6334 51.1712 43.528C51.2844 43.5857 51.4513 43.6155 51.5029 43.7071C51.6777 44.0215 51.8108 44.3599 51.9578 44.6883H51.9518V44.6923Z" fill="#F6F7FB"/>
</svg>
