<svg width="44" height="36" viewBox="0 0 44 36" fill="none" xmlns="http://www.w3.org/2000/svg">
<path d="M25.6652 15.4773C25.0795 15.4809 24.4939 15.4858 23.9083 15.4773C20.6632 15.4326 17.4685 14.9986 14.3373 14.115C11.6215 13.3474 9.00666 12.3018 6.47984 11C6.42115 11.197 6.35895 11.3663 6.32139 11.5403C5.70406 14.4063 5.14072 17.2868 4.46236 20.1371C3.48355 24.2457 4.02342 28.0316 6.42115 31.5129C7.70628 33.378 9.56414 34.5493 11.2729 35.9056C11.4326 36.0325 11.5851 36.0083 11.7647 35.966C12.5968 35.7738 13.4336 35.5973 14.2669 35.4124C19.2149 34.3148 22.4318 31.2204 23.758 26.2438C24.6711 22.8206 25.2345 19.2994 25.9786 15.8266C26.0607 15.4459 25.8964 15.4785 25.664 15.4797L25.6652 15.4773ZM8.15226 19.3248C7.9011 19.355 7.56779 19.4916 7.43165 19.1326C7.28495 18.7446 7.63586 18.6032 7.86003 18.4436C8.43393 18.0387 9.06887 17.8126 9.58526 17.8598C11.1039 17.8695 12.071 18.5149 12.747 19.6572C12.8726 19.87 13.0428 20.1274 12.7893 20.3619C12.5663 20.5687 12.3562 20.4079 12.1567 20.2785C10.9302 19.4783 9.60052 19.1471 8.15109 19.3248H8.15226ZM12.3691 31.0523C10.5981 30.6329 9.17801 28.8282 9.15806 26.8784C10.2225 28.0014 11.4419 28.7484 12.8703 29.0772C14.3021 29.4084 15.7198 29.3081 17.1916 28.7061C16.2585 30.6172 14.3303 31.5165 12.3691 31.0523ZM21.8744 22.4519C21.6596 22.6816 21.4929 22.5438 21.3122 22.4217C20.2242 21.6892 19.0436 21.2975 17.7314 21.3785C17.4791 21.3942 17.2244 21.4003 16.9733 21.4281C16.7691 21.4511 16.5801 21.4631 16.512 21.2069C16.4451 20.9567 16.5684 20.8019 16.7526 20.6508C17.9838 19.6439 19.8545 19.6947 21.0505 20.779C21.3897 21.086 21.676 21.4366 21.8814 21.8524C21.98 22.053 22.0727 22.2392 21.8744 22.4507V22.4519Z" fill="#FCFCFC"/>
<path d="M39.405 9.86272C38.4907 6.68184 37.3325 3.57389 36.3129 0.424093C36.1625 -0.0409053 36.0677 -0.116213 35.6343 0.162307C32.7163 2.03545 29.6195 3.54639 26.3248 4.61147C23.2908 5.59167 20.1738 6.18816 17 6.45233C17.0024 6.64001 17.0379 6.78823 17.0876 6.94243C17.8148 9.17179 18.5324 11.4047 19.2513 13.6377C19.5615 14.6 19.5627 14.5701 20.535 14.6872C22.6359 14.9418 24.7439 14.9526 26.853 14.9096C27.258 14.9012 27.3658 15.0159 27.2829 15.3997C26.7571 17.8346 26.2502 20.2732 25.7067 22.7034C25.6273 23.0572 25.7209 23.1947 26.0087 23.3441C26.583 23.6417 27.174 23.8963 27.7767 24.1282C29.4205 24.763 31.1685 24.7307 32.8738 24.9781C33.5465 25.0762 33.9811 24.8383 34.4133 24.39C34.9072 23.8772 35.4507 23.4134 35.9588 22.9125C39.6679 19.2523 40.8427 14.8665 39.405 9.86272ZM26.9561 11.0103C26.538 12.2941 25.1536 13.2528 23.7112 13.2528C23.0598 13.2874 22.4772 13.0651 21.9265 12.7483C21.7655 12.6551 21.5641 12.5296 21.6316 12.2845C21.6956 12.0514 21.8602 11.9271 22.1136 11.9415C23.7183 12.0263 25.1264 11.5231 26.3592 10.4927C26.5262 10.3528 26.7014 10.3074 26.8886 10.4688C27.078 10.6313 27.0188 10.8166 26.9561 11.0103ZM28.0918 20.9916C27.6725 19.4316 28.9965 17.3338 30.8321 16.6488C32.7163 15.9447 35.0659 16.7492 35.8261 18.369C32.721 17.6732 30.1464 18.5578 28.0918 20.9928V20.9916ZM35.7977 8.07564C35.0066 9.94759 32.798 10.7449 31.0264 9.80056C30.7895 9.67385 30.4626 9.583 30.5278 9.23276C30.6048 8.81916 30.96 8.92077 31.2016 8.93153C32.6772 8.88491 33.9799 8.46653 35.1073 7.55924C35.3145 7.39309 35.4969 7.19944 35.774 7.39428C36.0725 7.60347 35.8913 7.8533 35.7977 8.07564Z" fill="#FCFCFC"/>
</svg>
