<svg width="45" height="50" viewBox="0 0 45 50" fill="none" xmlns="http://www.w3.org/2000/svg">
<path d="M44.978 20.374C44.978 19.1333 44.978 17.8926 44.978 16.6518C44.974 16.5845 44.9664 16.5165 44.9664 16.4491C44.9659 13.2503 44.9659 10.0509 44.9664 6.8521C44.9664 6.7847 44.974 6.71679 44.978 6.6494C44.978 5.54397 44.978 4.43854 44.978 3.33261C44.9836 3.32954 44.9891 3.32852 44.9942 3.32801C44.9942 3.20138 44.9957 3.07476 44.9937 2.94813C44.9831 2.23484 45.026 1.52052 44.9725 0.80825C44.9396 0.367611 44.5981 0.0602359 44.1627 0.0229628C43.7752 -0.0102255 43.4367 0.0908713 43.1235 0.325232C42.6305 0.694388 42.1213 1.04108 41.5954 1.36275C40.1249 2.26088 38.626 3.09824 36.9706 3.60679C35.8299 3.95757 34.66 4.15363 33.4718 4.17712C32.6039 4.19448 31.7517 4.02394 30.9192 3.76048C29.3971 3.2795 27.9629 2.58714 26.5197 1.91674C25.3411 1.36939 24.1419 0.87769 22.889 0.534574C21.8085 0.238942 20.7138 0.0372593 19.5858 0.0158146C18.3254 -0.00767256 17.0655 -0.0265644 15.8127 0.126102C13.7425 0.378844 11.7284 0.876158 9.7764 1.62009C7.79261 2.37627 5.9245 3.35609 4.18925 4.59121C3.74268 4.90931 3.31278 5.2514 2.85763 5.55724C2.62121 5.71655 2.57221 5.69868 2.47572 5.43879C2.36863 5.15235 2.25547 4.86846 2.13928 4.5861C2.02915 4.31907 1.90993 4.0556 1.71949 3.83452C1.50277 3.58279 1.22846 3.47506 0.905155 3.54859C0.534362 3.63283 0.194889 3.77427 0.0458645 4.17559C0.0276785 4.2241 0.029194 4.27566 0.0211113 4.3257C-0.049107 4.75205 0.0675867 5.15031 0.198425 5.54601C0.978909 7.908 1.82608 10.246 2.64546 12.5937C3.1486 14.0361 3.65832 15.4765 4.17157 16.9153C4.86719 18.8658 5.55623 20.8188 6.24831 22.7702C6.83532 24.4261 7.42333 26.0814 8.01084 27.7373C8.76051 29.8486 9.51018 31.9604 10.2599 34.0716C10.8534 35.7433 11.4455 37.415 12.0375 39.0877C12.717 41.008 13.4005 42.9268 14.084 44.8456C14.6078 46.3166 15.1347 47.7871 15.6843 49.2484C15.8339 49.6467 16.0779 49.9336 16.5184 50H16.922C17.5706 49.8749 17.8717 49.3781 17.6934 48.7261C17.6373 48.5213 17.5742 48.3191 17.5095 48.1169C16.8109 45.9342 16.0405 43.7764 15.2782 41.6161C14.7558 40.1359 14.2345 38.6552 13.7031 37.1786C13.4444 36.4602 13.1959 35.7382 12.9393 35.0188C12.8882 34.8763 12.865 34.7446 13.0034 34.6267C13.2863 34.3862 13.553 34.1268 13.8395 33.8904C15.3388 32.6548 16.9685 31.6269 18.7265 30.8125C20.0318 30.208 21.4033 29.8634 22.8431 29.8276C23.6079 29.8087 24.3707 29.8715 25.131 29.9405C26.6763 30.0809 28.1822 30.4286 29.675 30.8493C31.1794 31.2736 32.6782 31.7342 34.2528 31.8307C35.4798 31.9057 36.7044 31.8858 37.9244 31.7347C39.5778 31.5304 41.1665 31.0627 42.7189 30.4699C43.3468 30.23 43.9747 29.9828 44.5405 29.604C44.7866 29.4396 44.9416 29.2348 44.9507 28.9188C44.975 28.0707 44.9972 27.2221 44.9967 26.3735C44.9957 25.5131 44.9967 24.6523 44.9967 23.7924L44.9805 23.7904C44.9805 22.6518 44.9805 21.5127 44.9805 20.374H44.978ZM16.0425 20.6947C15.2858 21.1323 14.4876 21.4892 13.7364 21.9395C12.4109 22.7345 11.1894 23.6735 9.98807 24.6431C9.46017 25.0694 9.45057 25.0689 9.20456 24.4389C8.16391 21.7766 7.24703 19.0685 6.28014 16.3787C6.20588 16.1719 6.14728 15.958 6.05787 15.7578C5.98462 15.5934 6.00987 15.4964 6.15031 15.3769C7.18894 14.4941 8.33062 13.7665 9.50159 13.0813C10.4089 12.5503 11.3616 12.1086 12.2972 11.6338C12.7746 11.3918 12.7705 11.3851 12.5872 10.8842C11.785 8.69278 10.8928 6.53502 10.1401 4.32519C9.95018 3.76712 9.87946 3.86975 10.4624 3.64866C12.2361 2.97468 14.0628 2.50443 15.945 2.28436C17.2736 2.12864 18.6103 2.10668 19.948 2.16182C20.1238 2.16897 20.1687 2.25884 20.2071 2.40486C20.7229 4.35276 21.2447 6.29862 21.762 8.24652C21.9075 8.79489 22.0358 9.34786 22.1879 9.89419C22.2313 10.0499 22.1939 10.0795 22.05 10.0898C21.5286 10.127 21.0083 10.0949 20.4875 10.0898C18.4744 10.0719 16.5063 10.3808 14.5679 10.9113C14.1153 11.0354 13.6672 11.1809 13.211 11.2886C12.9499 11.3504 12.9236 11.475 12.9958 11.7032C13.2863 12.6146 13.6263 13.5076 13.9653 14.4012C14.7058 16.3537 15.4464 18.3062 16.1961 20.2556C16.2794 20.4721 16.2441 20.5783 16.042 20.6952L16.0425 20.6947ZM26.6172 27.9042C25.7493 27.8021 24.8794 27.7296 24.0065 27.6928C22.5284 27.6306 21.0725 27.7669 19.6388 28.1422C19.2458 28.2448 19.2382 28.233 19.0902 27.8567C18.1859 25.5509 17.3433 23.2221 16.534 20.8811C16.4229 20.5599 16.4249 20.5482 16.7538 20.4552C17.9965 20.1039 19.2337 19.722 20.5319 19.6327C20.8411 19.6112 21.1533 19.6296 21.464 19.6296C22.5223 19.647 23.5781 19.7093 24.6273 19.8599C24.7779 19.8813 24.8375 19.9441 24.8749 20.0866C25.5432 22.6237 26.2161 25.1593 26.8874 27.6954C26.944 27.9088 26.9041 27.9384 26.6172 27.9047V27.9042ZM42.8295 19.8568C41.4464 20.5415 39.988 21.0148 38.5114 21.4381C37.8723 21.6214 37.8693 21.6194 37.9188 22.2898C38.0764 24.4414 38.236 26.593 38.3952 28.7447C38.3987 28.7957 38.4022 28.8463 38.4048 28.8973C38.4366 29.5233 38.4336 29.533 37.8082 29.5963C36.5094 29.7281 35.2081 29.7556 33.9057 29.6499C33.3864 29.6076 33.3571 29.5948 33.2142 29.0822C32.8191 27.6704 32.5292 26.2326 32.2099 24.8024C31.9901 23.8185 31.7997 22.8274 31.5794 21.8435C31.5259 21.6046 31.6032 21.5928 31.7977 21.6173C32.4312 21.6975 33.0662 21.7634 33.7006 21.8364C35.0171 21.9875 36.3169 21.8262 37.6162 21.6362C37.794 21.6102 37.8198 21.5173 37.8082 21.36C37.7304 20.3266 37.6652 19.2921 37.5844 18.2592C37.4798 16.9128 37.3606 15.5674 37.2555 14.2214C37.21 13.6373 37.2151 13.6195 36.6493 13.7318C34.3533 14.1872 32.1397 13.8982 29.9867 13.0139C29.8705 12.9659 29.7517 12.9235 29.6335 12.8811C29.6113 12.873 29.585 12.8765 29.532 12.8725C30.1271 15.7323 30.8202 18.5599 31.3946 21.4458C31.0142 21.4202 30.6696 21.314 30.3256 21.2242C28.6616 20.7892 27.0001 20.3449 25.3224 19.9666C25.0249 19.8997 24.8688 19.744 24.7743 19.4565C24.3555 18.1852 24.0413 16.8842 23.6988 15.5919C23.2543 13.9141 22.8335 12.2296 22.4036 10.5472C22.3015 10.148 22.3354 10.1097 22.7466 10.1863C23.516 10.3297 24.2505 10.5947 24.9855 10.8567C26.4166 11.3667 27.7947 12.008 29.194 12.5967C29.2627 12.6258 29.333 12.6514 29.4633 12.7029C28.8712 10.0693 28.2918 7.4934 27.7038 4.87714C28.2196 5.0824 28.704 5.27591 29.1885 5.46789C31.4244 6.35377 33.7229 6.50643 36.0714 6.06426C36.5468 5.97491 36.5427 5.97184 36.5968 6.44873C36.8201 8.40685 36.9453 10.3736 37.1055 12.3374C37.1338 12.6846 37.1762 13.0302 37.1964 13.3779C37.205 13.5276 37.2484 13.5367 37.3783 13.4995C38.187 13.2672 38.9584 12.9414 39.7202 12.5865C40.7346 12.1147 41.7136 11.5776 42.6643 10.9858C42.7477 10.9343 42.8336 10.8873 42.9876 10.7984C42.9876 11.3218 42.9871 11.7859 42.9876 12.2501C42.9922 14.6891 42.9952 17.1282 43.0053 19.5673C43.0058 19.7169 42.9599 19.7925 42.8285 19.8573L42.8295 19.8568Z" fill="#FEFEFE"/>
</svg>
