<svg width="36" height="35" viewBox="0 0 36 35" fill="none" xmlns="http://www.w3.org/2000/svg">
<path d="M15.8849 9.62729C15.8834 10.6564 15.6301 11.6229 15.1454 12.5289C15.0527 12.7025 15.0512 12.8091 15.2009 12.961C16.1506 13.9254 17.1346 14.8537 18.1332 15.7676C18.2682 15.8915 18.3463 15.8843 18.4806 15.7626C19.4647 14.8681 20.4253 13.9499 21.3619 13.0064C21.4808 12.8861 21.5166 12.8062 21.4086 12.6456C19.9216 10.4353 20.3348 8.26542 21.9823 6.33892C23.2685 4.83517 24.9227 3.80746 26.6542 2.88995C27.663 2.35485 28.7134 1.93858 29.85 1.71964C32.7852 1.15502 35.6007 3.79018 34.8897 6.93091C34.7167 7.69575 34.4678 8.43322 34.1167 9.13468C33.1327 11.1022 32.0063 12.9726 30.3033 14.4374C29.5332 15.1 28.674 15.6142 27.6681 15.8425C26.3089 16.1507 25.0643 15.8396 23.9197 15.0978C23.7153 14.9653 23.6043 14.9812 23.4357 15.1454C22.5692 15.988 21.7268 16.8529 20.8918 17.7251C20.7049 17.9202 20.7041 18.0088 20.9173 18.1831C23.3824 20.1924 25.8475 22.201 28.2944 24.2327C29.8952 25.5614 31.4603 26.9327 32.8071 28.5228C33.4407 29.2711 34.0159 30.059 34.2941 31.0147C34.551 31.8976 34.367 32.674 33.7006 33.3272C33.0436 33.9703 32.2625 34.1424 31.3844 33.8976C30.5011 33.6513 29.7587 33.1507 29.0558 32.5912C27.3914 31.2653 25.9767 29.6953 24.6044 28.0893C22.5751 25.7141 20.5698 23.318 18.5668 20.9213C18.3529 20.6656 18.2573 20.6735 18.0463 20.9213C15.7089 23.6522 13.4803 26.4739 11.0758 29.1494C9.79251 30.5775 8.48294 31.9819 6.88284 33.0823C6.38281 33.4266 5.85285 33.7147 5.2623 33.8846C4.36808 34.1424 3.58044 33.9754 2.91106 33.3236C2.22853 32.6589 2.06648 31.8659 2.32927 30.9743C2.49716 30.404 2.78842 29.8926 3.12786 29.4072C4.0666 28.0633 5.24697 26.9377 6.46092 25.8452C9.03188 23.5319 11.7758 21.4218 14.4417 19.2187C14.8797 18.8565 15.3111 18.487 15.7535 18.1298C15.8907 18.0189 15.9294 17.9534 15.7871 17.8021C14.9031 16.8601 13.992 15.9433 13.0664 15.0409C12.8993 14.8782 12.7898 14.9343 12.6277 15.0136C11.0948 15.7633 9.51074 15.988 7.86319 15.4219C7.20768 15.1965 6.63465 14.827 6.20981 14.2833C4.2199 11.7331 2.157 9.24415 0.207968 6.66805C-0.198627 6.13079 0.0145255 5.40268 0.642302 5.15781C0.798516 5.09732 0.820416 5.25144 0.877353 5.31914C1.9234 6.56722 2.96216 7.82034 4.00383 9.07275C4.86738 10.1113 5.73021 11.1505 6.59523 12.1876C6.97482 12.6427 7.32082 12.6614 7.76684 12.2567C8.13572 11.922 8.15202 11.5704 7.81575 11.2016C5.91344 9.11452 4.0104 7.02742 2.10809 4.94104C2.07524 4.90503 2.04093 4.87118 2.00954 4.83517C1.69711 4.4794 1.69346 4.08186 1.99859 3.81827C2.29934 3.559 2.69791 3.61589 3.02128 3.96879C3.5673 4.5651 4.11113 5.16358 4.65569 5.76133C6.12805 7.37527 7.60405 8.98561 9.06692 10.6082C9.25087 10.8127 9.35307 10.8221 9.53994 10.6233C9.92026 10.22 10.3166 9.82894 10.724 9.45229C10.9152 9.27512 10.894 9.18294 10.7042 9.01513C8.49243 7.06415 6.2901 5.10308 4.08485 3.14561C3.60672 2.72142 3.51913 2.3426 3.82644 2.01492C4.13522 1.68651 4.50532 1.73837 4.99221 2.1712C7.196 4.13011 9.40417 6.08469 11.6014 8.0508C11.8072 8.23517 11.927 8.23949 12.0795 8.01912C12.1474 7.92117 12.2452 7.84411 12.327 7.75481C12.7343 7.31189 12.7139 6.98493 12.2438 6.59891C9.95457 4.7185 7.66829 2.83521 5.36888 0.967049C5.13018 0.772598 5.13675 0.660969 5.35793 0.493886C5.43457 0.436271 5.49662 0.359932 5.56597 0.292234C5.93534 -0.0649785 6.21272 -0.0981071 6.62589 0.211573C7.75808 1.06067 8.88443 1.91697 10.0079 2.77832C11.4284 3.86724 12.8431 4.96336 14.2621 6.05517C15.4425 6.96404 15.871 8.2042 15.8849 9.62729Z" fill="#F6F7FB"/>
</svg>
