<svg width="58" height="52" viewBox="0 0 58 52" fill="none" xmlns="http://www.w3.org/2000/svg">
<g clip-path="url(#clip0_97_374)">
<path d="M23.8755 21.4713C24.0929 20.5551 24.2406 19.624 24.3175 18.6858C24.6672 14.9207 24.0037 11.3263 22.457 7.88085C22.3345 7.6081 22.2421 7.51813 21.9198 7.62029C21.1309 7.87713 20.2798 7.87483 19.4923 7.61373C18.7048 7.35263 18.0226 6.84658 17.5466 6.17032C17.07 5.5045 16.8156 4.70669 16.8193 3.88943C16.8231 3.07216 17.0847 2.27668 17.5673 1.61517C18.046 0.96055 18.7169 0.469485 19.4877 0.209503C20.2585 -0.0504793 21.0913 -0.0666095 21.8717 0.16333C22.6663 0.40097 23.3649 0.882596 23.8674 1.53922C24.3699 2.19584 24.6505 2.99377 24.6691 3.8187C24.6986 4.50853 24.5267 5.1921 24.1743 5.78698C24.0423 6.00536 24.0744 6.12065 24.2685 6.27905C29.2271 10.3093 32.1564 15.5581 33.6549 21.6691C33.6804 21.7713 33.6634 21.8912 33.7897 21.9737C34.1978 21.4114 34.5937 20.8359 35.015 20.2866C38.2525 16.0464 42.4099 13.2411 47.7275 12.2617C48.3741 12.1417 49.0291 12.0611 49.6842 11.9946C50.0404 11.958 50.2318 11.8558 50.3505 11.4669C50.6038 10.6554 51.1193 9.9498 51.8169 9.45938C52.5146 8.96895 53.3554 8.72115 54.2092 8.75439C55.0862 8.78869 55.9266 9.11283 56.5976 9.67551C57.2685 10.2382 57.7317 11.0073 57.9137 11.8611C58.0957 12.715 57.9862 13.6048 57.6025 14.3898C57.2189 15.1748 56.583 15.8102 55.7954 16.1954C54.9855 16.5922 54.0621 16.6962 53.1834 16.4898C52.3048 16.2834 51.5258 15.7793 50.9801 15.0641C50.7492 14.7623 50.6107 14.7829 50.3298 14.9592C47.4608 16.74 45.2516 19.0588 44.1639 22.3102C43.4759 24.3647 43.3486 26.497 43.2987 28.6387C43.2902 29.0239 43.2987 29.4091 43.2987 29.799C33.7539 26.6301 24.2601 26.6273 14.7068 29.799C14.7068 29.5178 14.7068 29.2292 14.7068 28.9424C14.6663 26.7219 14.5475 24.5109 13.8585 22.3749C12.8331 19.1881 10.7049 16.8937 7.93205 15.1204C7.34015 14.7455 7.33732 14.7455 6.87078 15.2703C6.29497 15.9191 5.51793 16.3582 4.66277 16.5182C3.80761 16.6781 2.92322 16.5497 2.14975 16.1532C0.588962 15.365 -0.27626 13.5982 0.0762378 11.9214C0.453241 10.1303 1.92732 8.85468 3.73128 8.75439C4.60091 8.70774 5.46126 8.95159 6.17548 9.44717C6.88969 9.94275 7.41676 10.6616 7.67286 11.4894C7.7737 11.8174 7.91225 11.9524 8.26004 11.9842C14.9075 12.5982 19.9471 15.873 23.704 21.2511C23.7388 21.3008 23.7784 21.3476 23.8755 21.4713Z" fill="#F6F7FB"/>
<path d="M40.727 35.4279C40.727 34.3191 40.7383 33.2103 40.7204 32.1025C40.7204 31.7848 40.7967 31.7276 41.0889 31.8344C41.7487 32.0791 42.4141 32.3087 43.0823 32.5318C43.2708 32.5936 43.3651 32.6658 43.3651 32.8861C43.3217 35.0418 43.4489 37.1975 43.2906 39.3476C42.8533 45.2628 38.2152 50.5227 32.3575 51.6428C28.1473 52.4479 24.121 51.9661 20.5536 49.4055C16.7562 46.6809 14.8043 42.9383 14.6657 38.2848C14.6111 36.5217 14.6657 34.7559 14.6459 32.992C14.6459 32.7014 14.7402 32.5852 15.0088 32.5018C15.6214 32.3143 16.2272 32.104 16.826 31.871C17.1775 31.7341 17.2972 31.7576 17.2972 32.1868C17.2755 34.1073 17.2859 36.0297 17.2887 37.9483C17.2972 43.5579 21.0823 48.2011 26.645 49.1571C32.6309 50.1881 37.3453 47.5731 39.6516 42.8943C40.3724 41.414 40.744 39.7897 40.7383 38.1451C40.7317 37.2397 40.727 36.3343 40.727 35.4279Z" fill="#F6F7FB"/>
<path d="M29.0576 46.3424C26.6128 46.3058 24.5129 45.4866 22.8069 43.7367C22.2414 43.1547 22.2169 42.4245 22.7381 41.91C23.2593 41.3954 23.9813 41.4357 24.5685 42.0159C27.1 44.5156 30.9238 44.51 33.4516 42.0037C34.0171 41.4413 34.7249 41.3982 35.2518 41.8865C35.7787 42.3749 35.7834 43.1369 35.2263 43.7133C33.5411 45.4576 31.4601 46.2861 29.0576 46.3424Z" fill="#F6F7FB"/>
<path d="M29.0228 36.1221C29.8155 36.1605 30.545 36.3545 31.1331 36.9113C31.9163 37.6545 31.921 38.7239 31.1519 39.4784C30.0841 40.5263 27.9804 40.5441 26.8937 39.5141C26.0775 38.7408 26.0813 37.6395 26.9116 36.8813C27.5082 36.3367 28.2443 36.1493 29.0228 36.1221Z" fill="#F6F7FB"/>
<path d="M25.4646 33.1341C25.4384 33.6358 25.2202 34.1086 24.8547 34.4555C24.4892 34.8024 24.0041 34.9972 23.4989 35C22.9937 35.0028 22.5065 34.8133 22.1372 34.4703C21.7679 34.1274 21.5445 33.6571 21.5127 33.1556C21.4958 32.8881 21.5339 32.62 21.6248 32.3677C21.7157 32.1155 21.8575 31.8843 22.0414 31.6884C22.2254 31.4925 22.4476 31.3361 22.6945 31.2286C22.9413 31.1212 23.2077 31.065 23.4772 31.0635C23.7467 31.062 24.0136 31.1153 24.2617 31.2201C24.5098 31.3248 24.7337 31.4789 24.9198 31.6727C25.1059 31.8666 25.2502 32.0962 25.3439 32.3475C25.4375 32.5987 25.4786 32.8664 25.4646 33.1341Z" fill="#F6F7FB"/>
<path d="M36.4951 33.1287C36.5086 33.3956 36.4672 33.6626 36.3735 33.9131C36.2798 34.1637 36.1357 34.3926 35.9502 34.586C35.7646 34.7794 35.5413 34.9331 35.294 35.0379C35.0467 35.1427 34.7805 35.1962 34.5117 35.1953C34.2429 35.1944 33.9771 35.1391 33.7305 35.0327C33.4839 34.9263 33.2617 34.7711 33.0774 34.5765C32.8931 34.3819 32.7506 34.1519 32.6586 33.9008C32.5666 33.6496 32.527 33.3824 32.5422 33.1155C32.571 32.6125 32.7926 32.1396 33.1614 31.7941C33.5303 31.4487 34.0183 31.2571 34.5249 31.2588C35.0316 31.2605 35.5183 31.4553 35.8848 31.8032C36.2514 32.151 36.4698 32.6254 36.4951 33.1287Z" fill="#F6F7FB"/>
</g>
<defs>
<clipPath id="clip0_97_374">
<rect width="58" height="52" fill="white"/>
</clipPath>
</defs>
</svg>
