<svg width="41" height="50" viewBox="0 0 41 50" fill="none" xmlns="http://www.w3.org/2000/svg">
<path d="M40.8239 47.2369C40.2178 45.9588 39.7947 44.6086 39.4121 43.2478C38.3703 39.5399 37.8202 35.7464 37.4803 31.9201C37.2131 28.9123 37.106 25.8978 37.0922 22.8789C37.0922 21.3331 37.0955 19.7861 37.1925 18.2431C37.3034 16.4494 37.2186 14.6785 36.8127 12.9215C35.1404 5.67568 28.6484 0.282995 21.2443 0.0129444C17.4616 -0.124859 13.9761 0.834215 10.8992 3.05297C6.37738 6.31358 4.00362 10.7728 3.77905 16.356C3.74412 17.2223 3.84226 18.0936 3.86721 18.9632C4.02968 24.7082 3.85668 30.4381 3.05489 36.1364C2.50816 40.0183 1.68752 43.8301 0.116098 47.4464C-0.15671 48.0748 0.0717389 48.6688 0.670587 49.0022C1.02909 49.2009 1.44115 49.2809 1.84776 49.2306C4.22929 48.9744 6.26205 47.9853 7.95878 46.295C8.05415 46.2 8.13068 46.0655 8.30035 46.1022C8.48777 46.1428 8.48943 46.3122 8.52713 46.4489C8.67352 46.9735 8.81492 47.4991 9.03505 47.9998C9.40157 48.8333 10.0331 49.3234 10.9203 49.5062C11.392 49.5976 11.8723 49.6364 12.3525 49.6218C13.2131 49.6079 13.9489 49.2884 14.5705 48.6999C15.1921 48.1115 15.5919 47.3958 15.9013 46.6134C15.9567 46.4734 15.9623 46.2856 16.1691 46.2695C16.3909 46.2517 16.4264 46.4512 16.5018 46.5895C16.7713 47.0941 17.0164 47.613 17.2992 48.1098C18.2035 49.6996 19.5565 50.2213 21.363 49.9157C22.3666 49.749 23.0747 49.1378 23.6065 48.2993C23.9536 47.752 24.2203 47.1624 24.5175 46.5879C24.589 46.4495 24.6256 46.2495 24.8502 46.2695C25.0553 46.2878 25.0637 46.4734 25.1186 46.614C25.3151 47.1431 25.5822 47.6431 25.9126 48.1004C26.4909 48.8783 27.2228 49.4289 28.1993 49.5795C28.8148 49.6745 29.4319 49.6295 30.0452 49.5162C31.0288 49.3345 31.6881 48.7733 32.0524 47.8492C32.2293 47.3732 32.3811 46.8882 32.5071 46.3962C32.6041 46.0433 32.7716 46 33.0239 46.2589C34.2657 47.538 35.8267 48.4605 37.5446 48.9305C38.2278 49.1228 38.9231 49.2956 39.6434 49.2256C40.5599 49.1361 41.3678 48.3843 40.8239 47.2369ZM13.9672 21.7159C11.7792 21.8171 9.98545 20.1695 9.88231 17.9647C9.78472 15.8626 11.472 14.0706 13.644 13.97C15.7033 13.8745 17.5204 15.5664 17.6169 17.6685C17.7134 19.7706 16.0521 21.6198 13.9672 21.7159ZM27.4574 21.7159C25.306 21.8032 23.4734 20.1356 23.3996 18.023C23.3226 15.8243 24.9727 14.0545 27.1818 13.9667C29.2667 13.8839 31.0527 15.5937 31.1309 17.7452C31.2063 19.8133 29.5217 21.6331 27.4574 21.7198V21.7159Z" fill="#F6F7FB"/>
</svg>
