<svg width="54" height="38" viewBox="0 0 54 38" fill="none" xmlns="http://www.w3.org/2000/svg">
<g clip-path="url(#clip0_190_5255)">
<path d="M30.776 17.5353C30.0868 17.6626 29.3811 17.731 28.6801 17.757C24.9682 17.8961 21.2539 18.0329 17.5561 17.5518C16.7939 17.4527 16.5234 17.6155 16.5564 18.4361C16.6199 20.042 16.5422 21.6503 16.5846 23.2585C16.6528 25.8667 18.457 27.6683 21.0398 27.7414C22.056 27.7697 23.0722 27.7461 24.0908 27.7461V27.739C25.147 27.739 26.2031 27.7768 27.257 27.732C29.6422 27.6306 31.4558 25.8195 31.524 23.4378C31.5734 21.7139 31.5123 19.9878 31.5499 18.264C31.564 17.6555 31.4299 17.415 30.776 17.5353ZM26.5278 23.7773C26.1514 24.4423 25.0764 24.8998 23.9449 24.8762C22.9923 24.8762 22.1854 24.5673 21.602 23.775C21.3668 23.4543 21.2986 23.117 21.6467 22.8411C21.9478 22.603 22.1925 22.7515 22.4653 22.9826C23.6415 23.9707 24.5001 23.9825 25.6245 23.0109C25.8926 22.7798 26.1208 22.6077 26.4337 22.8388C26.7936 23.1029 26.7136 23.4448 26.5254 23.7773H26.5278Z" fill="#F7F7F7"/>
<path d="M37.2836 14.1442C28.4719 9.90425 19.6626 9.91133 10.832 14.1395C15.0238 17.7098 33.1883 17.698 37.2836 14.1442Z" fill="#F7F7F7"/>
<path d="M20.1252 10.0177C21.4142 9.97286 22.7033 10.0035 23.9947 10.0035C25.4014 10.0035 26.8081 9.9988 28.2147 10.0059C28.6311 10.0059 28.9698 10.0318 28.911 9.4069C28.6405 6.48279 28.3982 3.55631 28.1677 0.627483C28.1277 0.108689 27.8736 0.000213347 27.4079 0.000213347C25.1803 0.0167204 22.9526 0.0261531 20.725 0.000213347C20.1746 -0.00686112 20.0005 0.160568 19.9582 0.717093C19.7535 3.52802 19.5394 6.3413 19.2478 9.14515C19.1631 9.95399 19.4524 10.0436 20.1252 10.02V10.0177Z" fill="#F7F7F7"/>
<path d="M13.1733 30.4981C13.1357 30.5099 13.098 30.517 13.0604 30.5241C12.5735 30.6208 12.4629 30.833 12.637 31.3447C13.2862 33.2666 13.8931 35.205 14.4788 37.1505C14.6247 37.6386 14.8223 37.832 15.3609 37.8249C17.5839 37.7919 19.8068 37.8108 22.2696 37.8108C20.7477 35.7474 19.3645 33.8656 17.9767 31.9885C16.7394 30.3158 15.1398 29.8182 13.178 30.4958L13.1733 30.4981Z" fill="#F7F7F7"/>
<path d="M34.9502 30.4911C34.1552 30.2954 33.3577 30.0784 32.6026 29.7742C32.0334 29.5455 31.7676 29.7671 31.4618 30.1893C30.1986 31.9319 28.8931 33.6463 27.6464 35.4008C27.4064 35.738 26.7595 36.0611 27.1665 36.5704C27.5946 37.1057 27.8486 37.9382 28.8272 37.8273C29.4459 37.7566 30.0786 37.8132 30.7043 37.8155C31.37 37.8155 32.0357 37.7849 32.6991 37.825C33.1978 37.8556 33.4801 37.7283 33.6377 37.2071C34.2257 35.2593 34.8444 33.3209 35.4819 31.3896C35.6653 30.8307 35.4866 30.6232 34.9526 30.4911H34.9502Z" fill="#F7F7F7"/>
<path d="M17.4482 29.3142C19.2078 31.7031 20.9673 34.0942 22.7268 36.4854C23.7877 37.9286 24.6133 38.1809 26.4787 37.6055C24.3452 35.0257 22.1646 32.5025 20.1252 29.8684C19.3348 28.8473 18.6126 28.5714 17.4506 29.3142H17.4482Z" fill="#F7F7F7"/>
<path d="M26.2437 35.302C26.6412 34.7691 27.0364 34.2432 27.4293 33.7126C28.3819 32.4274 29.337 31.1469 30.2732 29.8499C30.4073 29.6637 30.8142 29.3194 30.4825 29.2062C29.8992 29.0081 29.2452 28.3737 28.5983 29.1708C27.4928 30.5338 26.3801 31.8921 25.2369 33.2245C24.8888 33.6324 24.837 33.9414 25.244 34.3045C25.585 34.6087 25.7497 35.0969 26.2413 35.302H26.2437Z" fill="#F7F7F7"/>
<path d="M20.8428 28.9724C21.9766 30.3425 23.0045 31.5829 24.0607 32.861C25.1451 31.5428 26.1543 30.3213 27.2669 28.9724H20.8428Z" fill="#F7F7F7"/>
<path d="M36.3901 32.3115C35.8138 34.1132 35.3245 35.6412 34.84 37.1717C34.7929 37.3202 34.7694 37.4735 34.7012 37.773H38.1002C37.5404 35.9855 37.0041 34.2641 36.3925 32.3115H36.3901Z" fill="#F7F7F7"/>
<path d="M10.2104 37.1151C10.0622 37.5726 10.0458 37.8485 10.6715 37.8225C11.5653 37.7824 12.4639 37.8131 13.4801 37.8131C12.8991 36.0044 12.3487 34.2924 11.7112 32.3115C11.1466 34.1273 10.6879 35.6247 10.2081 37.1151H10.2104Z" fill="#F7F7F7"/>
</g>
<defs>
<clipPath id="clip0_190_5255">
<rect width="54" height="38" fill="white"/>
</clipPath>
</defs>
</svg>
