<svg width="48" height="34" viewBox="0 0 48 34" fill="none" xmlns="http://www.w3.org/2000/svg">
<g clip-path="url(#clip0_97_326)">
<path d="M46.9991 7.2582C46.9991 15.1027 46.989 22.9473 47.0151 30.7919C47.0151 31.4603 46.8427 31.5955 46.2181 31.594C39.9665 31.5673 33.7134 31.5806 27.4603 31.5687C26.9847 31.5426 26.5176 31.7054 26.1561 32.0233C24.8417 33.1537 23.1796 33.1433 21.8565 32.0099C21.5143 31.7044 21.0709 31.5449 20.6175 31.5643C14.3412 31.5777 8.06355 31.5643 1.78731 31.597C1.13085 31.597 0.998966 31.4128 1.00042 30.774C1.02264 22.9508 1.02748 15.1315 1.01492 7.31613C1.01492 7.14233 1.00478 6.96854 1.01492 6.79623C1.03666 6.49914 0.940998 6.37437 0.617839 6.34169C0.0758595 6.28375 0.00195312 6.51697 0.00195312 7.00864C0.0164446 15.2973 0.0164446 23.587 0.00195312 31.8777C0.00195312 32.4481 0.128043 32.6085 0.704802 32.6071C7.17378 32.5833 13.6442 32.5952 20.1146 32.5848C20.5429 32.5655 20.9634 32.707 21.2971 32.9829C22.9984 34.351 25.0533 34.3406 26.7604 32.9591C27.0745 32.6985 27.4712 32.5657 27.8748 32.5863C34.3206 32.5942 40.7669 32.5942 47.2136 32.5863C47.4759 32.5863 47.7382 32.5521 48.0019 32.5343V6.40556C46.9991 6.29415 46.9991 6.29415 46.9991 7.2582Z" fill="#F6F7FB"/>
<path d="M3.10261 26.7674C7.45005 26.7377 11.7941 26.7343 16.1348 26.757C18.6476 26.7674 20.6431 27.8563 22.1183 29.9388C22.5956 30.6499 22.9564 31.4362 23.1863 32.2665L23.4008 32.2427V30.8657C23.4008 23.7654 23.4008 16.665 23.4008 9.56468C23.4114 9.04585 23.3745 8.52715 23.2906 8.01538C22.6052 4.34785 19.762 1.95928 15.9754 1.92511C11.6801 1.89095 7.38339 1.93254 3.08813 1.89838C2.44471 1.89838 2.36355 2.11079 2.36355 2.69011C2.38094 10.4579 2.38094 18.2257 2.36355 25.9935C2.35631 26.607 2.49542 26.7719 3.10261 26.7674ZM14.8088 12.3335C13.4563 12.3335 12.1071 12.3335 10.7613 12.3335C9.43537 12.3335 8.11086 12.3335 6.78489 12.3335C6.04728 12.3335 5.62557 11.9993 5.61688 11.4304C5.60818 10.8615 6.0212 10.4886 6.75012 10.4871C9.45035 10.4802 12.1491 10.4802 14.8465 10.4871C15.6029 10.4871 16.0058 10.8169 16.0058 11.3962C16.0159 12.0097 15.6073 12.332 14.8088 12.3335ZM16.0087 16.8492C15.9971 17.4152 15.6145 17.7271 14.9088 17.7301C13.5365 17.7301 12.1554 17.7301 10.7889 17.7301C9.43973 17.7301 8.09057 17.7301 6.74141 17.7301C5.99655 17.7301 5.57051 17.384 5.62558 16.8002C5.68644 16.1422 6.09656 15.8911 6.72114 15.8926C9.44408 15.903 12.167 15.8926 14.89 15.8926C15.6174 15.8971 16.0203 16.2565 16.0087 16.8492ZM6.77476 5.07571C8.12391 5.07571 9.4745 5.07571 10.8237 5.07571C12.1728 5.07571 13.5234 5.07571 14.8726 5.07571C15.6058 5.07571 16.0131 5.42479 16.0116 6.01153C16.0102 6.59828 15.6015 6.92953 14.8523 6.93101C12.152 6.93695 9.45277 6.93695 6.75447 6.93101C6.01975 6.93101 5.60529 6.57302 5.60819 5.99371C5.61109 5.41439 6.04294 5.07868 6.77476 5.07571ZM6.81677 21.2892C9.46967 21.2832 12.1226 21.2832 14.7755 21.2892C14.8958 21.2817 15.0165 21.2847 15.1363 21.2981C15.6768 21.3946 16.0333 21.6962 15.9985 22.2904C15.9638 22.8845 15.6015 23.1608 15.032 23.1608H10.77C9.44407 23.1608 8.11811 23.1608 6.7907 23.1608C6.04584 23.1608 5.63137 22.8296 5.61688 22.2577C5.60238 21.6858 6.05307 21.2907 6.81677 21.2892Z" fill="#F6F7FB"/>
<path d="M24.7022 32.3997C24.7817 32.2934 24.8534 32.1812 24.9167 32.064C26.1311 28.5376 28.5946 26.7551 32.2479 26.7551C36.4722 26.7551 40.6964 26.7358 44.9192 26.7729C45.5858 26.7729 45.6902 26.5724 45.6887 25.9515C45.6665 18.1827 45.6617 10.4134 45.6743 2.64361C45.6816 2.54472 45.6816 2.44541 45.6743 2.34652C45.6525 2.19798 45.7612 1.94694 45.5061 1.93803C45.2004 1.92912 45.2873 2.20541 45.2873 2.38366C45.2801 3.76808 45.2873 5.15399 45.2801 6.54286C45.2801 6.77608 45.3496 7.02266 45.1815 7.33014C44.3642 6.48493 43.5556 5.68429 42.7919 4.84205C42.4847 4.50188 42.3166 4.51525 42.018 4.84205C41.2616 5.68131 40.4631 6.47602 39.5661 7.42224C39.5661 5.63972 39.5487 4.06368 39.5763 2.48615C39.585 2.0227 39.4516 1.90387 39.0082 1.90832C36.9794 1.93209 34.9506 1.90832 32.9218 1.92169C32.1508 1.92169 31.377 1.86673 30.6104 2.01824C27.031 2.72828 24.6066 5.69171 24.595 9.4751C24.5718 16.5755 24.5848 23.6758 24.595 30.7776C24.5935 31.2678 24.6573 31.758 24.7022 32.3997ZM35.1578 6.53692C36.782 6.5384 38.3692 7.03388 39.7186 7.96062C41.0679 8.88735 42.1186 10.2037 42.7376 11.7429C43.3566 13.2821 43.5162 14.975 43.196 16.6072C42.8758 18.2394 42.0903 19.7375 40.939 20.9118C39.7876 22.0861 38.3223 22.8838 36.7284 23.2039C35.1345 23.524 33.4838 23.3521 31.9852 22.71C30.4867 22.0679 29.2078 20.9844 28.3104 19.5967C27.413 18.209 26.9375 16.5796 26.9441 14.9147C26.9605 12.6912 27.8325 10.5642 29.3706 8.99623C30.9088 7.42824 32.9885 6.54601 35.1578 6.54138V6.53692Z" fill="#F6F7FB"/>
<path d="M40.2976 5.70992C40.8439 5.1514 41.4164 4.61961 41.9265 4.02841C42.2656 3.63626 42.4771 3.55159 42.8524 4.00167C43.364 4.61367 43.9596 5.15288 44.6407 5.84806V0.797602C44.6327 0.673952 44.6327 0.549896 44.6407 0.426245C44.6929 0.0177518 44.4494 0.00586813 44.1538 0.00883899C43.022 0.0177516 41.8888 0.0340913 40.7584 0.00883899C40.2991 -0.00452988 40.1411 0.108363 40.1527 0.603011C40.186 2.15826 40.1614 3.7135 40.1715 5.26875C40.1744 5.41283 40.06 5.61634 40.2976 5.70992Z" fill="#F6F7FB"/>
<path d="M3.09001 30.3208C6.20277 30.3342 9.32134 30.3312 12.4269 30.3312H20.6623C20.5377 29.7742 20.1711 29.847 19.8407 29.847C14.2441 29.847 8.64748 29.85 3.05088 29.8559C2.83931 29.8559 2.41907 29.6554 2.4466 30.1069C2.46544 30.511 2.8625 30.3208 3.09001 30.3208Z" fill="#F6F7FB"/>
<path d="M27.3994 30.2793C27.4298 30.2956 27.4516 30.3149 27.4733 30.3149C33.3791 30.3219 39.2848 30.3273 45.1906 30.3313C45.3702 30.3313 45.6094 30.3937 45.592 30.0728C45.5746 29.752 45.321 29.853 45.1572 29.853C39.4428 29.847 33.7288 29.847 28.0153 29.853C27.695 29.8455 27.4487 29.9035 27.3994 30.2793Z" fill="#F6F7FB"/>
<path d="M3.15889 28.3744H18.1706C17.5619 27.9422 16.8823 27.8857 16.1925 27.8857C11.8286 27.8857 7.46526 27.8857 3.10237 27.8857C2.95746 27.8857 2.81254 27.8857 2.66763 27.8857C2.52272 27.8857 2.39809 27.96 2.41693 28.1576C2.41693 28.188 2.42323 28.2181 2.43538 28.2458C2.44754 28.2736 2.46528 28.2984 2.48746 28.3186C2.50964 28.3388 2.53573 28.3539 2.56404 28.3631C2.59235 28.3722 2.62222 28.375 2.65169 28.3715C2.82124 28.3759 2.98934 28.3744 3.15889 28.3744Z" fill="#F6F7FB"/>
<path d="M45.5838 28.1313C45.5679 27.7213 45.223 27.8936 45.023 27.8921C40.5838 27.8832 36.1456 27.8832 31.7083 27.8921C31.0489 27.8678 30.3935 28.0058 29.7969 28.2947C29.9041 28.3467 29.9418 28.3793 29.9751 28.3793C35.0162 28.3793 40.0573 28.3793 45.0984 28.3793C45.281 28.3675 45.5998 28.5041 45.5838 28.1313Z" fill="#F6F7FB"/>
<path d="M34.9343 19.0312C34.1242 19.6402 33.3069 20.2388 32.4316 20.8865C34.2561 21.7257 35.9878 21.7183 37.8514 20.8865C36.9689 20.2329 36.1719 19.6461 35.3792 19.0534C35.2285 18.945 35.1039 18.9034 34.9343 19.0312Z" fill="#F6F7FB"/>
<path d="M31.4088 16.4467C31.4943 16.1942 31.3899 16.0857 31.2247 15.9624C30.4509 15.3846 29.6799 14.8023 28.7815 14.1279C28.6264 16.2164 29.1466 17.8905 30.4741 19.4279C30.8074 18.3569 31.0928 17.3974 31.4088 16.4467Z" fill="#F6F7FB"/>
<path d="M38.8837 16.4944C39.1822 17.4391 39.4807 18.3839 39.8111 19.4252C41.1255 17.8744 41.6733 16.2018 41.4632 14.1504C40.6009 14.8025 39.8184 15.4011 39.0257 15.9834C38.9438 16.0348 38.8837 16.1158 38.8574 16.2105C38.8311 16.3052 38.8405 16.4065 38.8837 16.4944Z" fill="#F6F7FB"/>
<path d="M32.5896 11.7528C32.7679 11.7528 32.9099 11.7305 32.9765 11.5166C33.2765 10.5451 33.5895 9.58556 33.9272 8.52051C31.9549 8.98099 30.5768 10.0386 29.5508 11.7513C30.6318 11.7528 31.6115 11.7528 32.5896 11.7528Z" fill="#F6F7FB"/>
<path d="M37.6659 11.7631C38.6426 11.7631 39.6193 11.7631 40.7163 11.7631C39.6773 10.0103 38.2919 8.98091 36.3486 8.52637C36.6877 9.58399 36.9964 10.5362 37.2978 11.4898C37.3159 11.5737 37.3633 11.6478 37.4312 11.6982C37.499 11.7486 37.5826 11.7717 37.6659 11.7631Z" fill="#F6F7FB"/>
<path d="M35.1461 16.5375C35.3447 16.5375 36.6069 15.4977 36.6156 15.3254C36.646 14.7074 36.0272 13.6142 35.6389 13.5978C34.2564 13.5399 33.7434 13.9736 33.6709 15.263C33.6666 15.4769 34.8896 16.5405 35.1461 16.5375Z" fill="#F6F7FB"/>
<path d="M37.2213 17.3975C36.6098 17.7777 36.6098 17.7777 37.5358 18.3021C37.4488 17.953 37.4126 17.65 37.2213 17.3975Z" fill="#F6F7FB"/>
<path d="M33.446 17.657C33.446 17.5635 33.1866 17.3867 33.1286 17.4164C32.8141 17.5768 32.8707 17.9259 32.8301 18.2364C33.0547 18.0388 33.4764 18.0551 33.446 17.657Z" fill="#F6F7FB"/>
<path d="M35.3765 11.7007C35.5127 11.4036 35.2736 11.1526 35.1925 10.8214C34.9186 11.0991 34.9273 11.3843 34.8027 11.6874C35.0302 11.7869 35.3012 11.8597 35.3765 11.7007Z" fill="#F6F7FB"/>
<path d="M31.3896 13.7241C31.6331 13.8727 31.7519 14.2544 32.1041 14.143C32.1736 14.1222 32.249 13.8192 32.2012 13.7583C31.9867 13.5043 31.6867 13.6706 31.3896 13.7241Z" fill="#F6F7FB"/>
<path d="M38.2154 14.2588C38.469 14.0969 38.7443 13.9929 38.911 13.5859C38.5255 13.7464 37.7604 13.2978 38.2154 14.2588Z" fill="#F6F7FB"/>
</g>
<defs>
<clipPath id="clip0_97_326">
<rect width="48" height="34" fill="white"/>
</clipPath>
</defs>
</svg>
