<svg width="28" height="47" viewBox="0 0 28 47" fill="none" xmlns="http://www.w3.org/2000/svg">
<path d="M0.0905715 22.3951C0.369155 22.8227 0.648272 23.2504 0.926322 23.6785C1.60037 24.7163 2.2536 25.7679 2.95379 26.7875C3.72283 27.9071 4.82169 28.3727 6.14843 28.1345C7.43194 27.9039 8.26076 27.1027 8.63701 25.8444C8.66476 25.7519 8.68077 25.6555 8.71279 25.5164C9.31105 26.1854 10.0305 26.5825 10.9057 26.651C11.7799 26.7195 12.5553 26.4642 13.2262 25.8974C14.1313 25.1326 14.7883 23.5843 13.9146 21.892C14.1494 21.9274 14.3731 21.982 14.5988 21.9911C15.8716 22.0408 16.8766 21.534 17.5229 20.4347C18.174 19.3274 18.1451 18.1837 17.4615 17.093C16.6908 15.8636 15.8871 14.6557 15.0946 13.4408C15.0092 13.3102 14.9628 13.1818 14.9628 13.0207C14.967 9.76564 14.9644 6.51114 14.9676 3.25609C14.9686 1.90259 15.8684 0.72249 17.1423 0.38746C18.46 0.0406546 19.7894 0.59779 20.4779 1.78485C20.7485 2.25154 20.8669 2.75836 20.8675 3.29302C20.8685 9.05384 20.8664 14.8141 20.8728 20.5749C20.8728 20.8131 20.805 20.8773 20.5889 20.8056C20.4122 20.7473 20.2372 20.7842 20.0621 20.8179C18.7279 21.0727 17.6952 22.0494 17.4914 23.2835C17.3526 24.1227 17.5746 24.9095 17.9103 25.6716C18.5209 27.0583 19.4313 28.218 20.5649 29.2097C21.0148 29.6031 20.9726 29.9055 20.4288 30.1709C18.8549 30.9384 17.366 31.8359 16.1001 33.0637C14.8208 34.3042 14.0134 35.7985 13.755 37.5753C13.7358 37.707 13.73 37.8419 13.73 37.9751C13.73 38.2427 13.8821 38.4161 14.1158 38.4274C14.3528 38.4386 14.5214 38.2807 14.5454 38.0174C14.7093 36.2181 15.5114 34.7399 16.8141 33.5229C18.0085 32.4064 19.3988 31.5844 20.8632 30.8817C21.2256 30.7077 21.4978 30.4583 21.6264 30.0719C21.7993 29.5517 21.636 29.0412 21.1706 28.6408C20.0258 27.6555 19.1196 26.4947 18.5598 25.0791C18.3581 24.5691 18.2135 24.0424 18.294 23.4891C18.4403 22.4866 19.1282 21.99 20.0098 21.6796C20.4464 21.526 20.8536 21.6806 21.2613 21.7898C22.9846 22.2517 24.6401 22.8784 26.1429 23.8637C26.4482 24.0639 26.7305 24.294 27.0038 24.537C27.8684 25.305 28.1699 26.2383 27.91 27.3772C27.5876 28.7907 27.0641 30.1319 26.5149 31.465C25.4038 34.164 24.1256 36.7902 23.0481 39.5036C22.6372 40.5376 22.247 41.5796 22.0373 42.6789C21.9855 42.9503 21.9535 43.2238 21.9546 43.5021C21.9589 44.3316 21.9466 45.1606 21.9621 45.9896C21.9663 46.2235 21.9103 46.2861 21.6717 46.2851C19.4489 46.2749 17.2256 46.2786 15.0028 46.2786C12.5841 46.2786 10.1655 46.2786 7.74682 46.2808C7.61073 46.2808 7.50079 46.2717 7.40366 46.14C5.2385 43.1895 3.12617 40.2037 1.30471 37.0225C0.910846 36.3348 0.547406 35.631 0.26562 34.8876C0.112453 34.4835 0.0356019 34.0714 0.0361356 33.6358C0.0420061 29.9708 0.0393377 26.3058 0.0393377 22.6408C0.0393377 22.5642 0.0393377 22.4882 0.0393377 22.4117L0.0905715 22.3973V22.3951Z" fill="#F6F7FB"/>
<path d="M4.40039 16.6846C4.40039 15.6426 5.05949 14.7418 6.04841 14.4325C7.01918 14.1285 8.1015 14.4753 8.66293 15.3295C10.1781 17.6356 11.6852 19.9471 13.1688 22.2736C13.8477 23.3376 13.4944 24.7751 12.4462 25.4521C11.3511 26.1591 9.92403 25.8765 9.20462 24.7783C7.87361 22.7457 6.56235 20.6996 5.24201 18.66C5.08244 18.4133 4.91273 18.1735 4.75529 17.9257C4.51567 17.5479 4.40092 17.132 4.40039 16.6846Z" fill="#F6F7FB"/>
<path d="M9.17578 13.7641C9.17738 12.7333 9.83648 11.8208 10.7982 11.5184C11.7839 11.2086 12.871 11.5559 13.4383 12.4138C14.5767 14.1366 15.706 15.8658 16.8107 17.61C17.4821 18.6697 17.1293 20.1142 16.0822 20.7907C15.0004 21.4896 13.5728 21.2119 12.8555 20.134C12.0027 18.8522 11.1755 17.5533 10.3376 16.2619C10.0713 15.8514 9.80446 15.4403 9.53922 15.0293C9.29106 14.6445 9.17418 14.2212 9.17631 13.7641H9.17578Z" fill="#F6F7FB"/>
<path d="M5.61117 27.3659C4.7418 27.3397 4.07416 27.0025 3.61626 26.3041C2.53448 24.6519 1.46017 22.995 0.391729 21.3343C-0.327145 20.2173 -0.0282808 18.7766 1.05617 18.0621C2.15289 17.3396 3.59491 17.6462 4.32926 18.7707C5.4041 20.4164 6.47627 22.0643 7.53777 23.7191C8.04157 24.5047 8.06986 25.338 7.6253 26.1531C7.18928 26.9527 6.48108 27.3413 5.61117 27.3654V27.3659Z" fill="#F6F7FB"/>
</svg>
