<svg width="42" height="51" viewBox="0 0 42 51" fill="none" xmlns="http://www.w3.org/2000/svg">
<g clip-path="url(#clip0_97_366)" filter="url(#filter0_d_97_366)">
<path d="M35.1215 14.2108C30.9417 10.0168 26.7645 5.81841 22.5897 1.61567C22.0734 1.09515 21.4754 0.641791 21.091 0H20.9053C20.8403 0.335821 20.5339 0.481343 20.3314 0.692164C15.8744 5.18221 11.4117 9.6648 6.94351 14.1399C6.46994 14.6101 6.39938 14.9366 6.7188 15.5448C9.81461 21.4459 12.8696 27.3675 15.9394 33.2817C17.6108 36.4981 19.2822 39.709 20.9703 42.9552C21.0446 42.87 21.1129 42.7796 21.1746 42.6847C25.9164 33.5541 30.6625 24.4241 35.413 15.2948C35.6972 14.7444 35.4298 14.5224 35.1215 14.2108ZM21.0074 2.20896C21.572 7.35819 21.572 12.5541 21.0074 17.7034C20.4515 12.5538 20.449 7.35906 21 2.20896H21.0074ZM19.0909 12.6026C18.1103 13.6349 17.1292 14.666 16.1474 15.6959C16.0081 15.8396 15.8446 16.1082 15.6255 15.8825C15.3766 15.6157 15.7444 15.5093 15.8614 15.403C16.9571 14.2836 18.0732 13.1978 19.1912 12.0914C19.362 12.3396 19.2097 12.4683 19.0834 12.6026H19.0909ZM19.0389 5.65298C19.2246 6.51493 19.0036 7.33209 18.1549 8.1306C16.2334 9.92786 14.3843 11.8029 12.6077 13.7556C11.889 14.541 11.2966 14.5373 10.524 14.0205L19.0389 5.65298ZM19.3713 36.4049L9.53791 17.6063C10.3773 18.0821 10.8843 18.5896 11.2539 19.3078C13.8006 24.2369 16.3696 29.1499 18.9609 34.0466C19.3249 34.7425 19.4326 35.4216 19.3639 36.4049H19.3713ZM21.0093 40.2575C20.4517 35.111 20.4517 29.9189 21.0093 24.7724C21.5717 29.9188 21.5693 35.1116 21.0019 40.2575H21.0093ZM21.4216 22.6604C20.9406 22.9571 20.6787 22.6922 20.3574 22.4963C17.079 20.5062 13.8031 18.5162 10.5296 16.5261C10.1897 16.319 9.84805 16.1194 9.51562 15.9216C9.86476 15.7351 10.1619 15.9627 10.4665 16.0858C13.7647 17.4067 17.0629 18.7239 20.3519 20.0672C20.5561 20.1599 20.7777 20.2078 21.0019 20.2078C21.226 20.2078 21.4476 20.1599 21.6518 20.0672C24.9389 18.7226 28.2328 17.3949 31.5335 16.084C31.7768 15.9869 32.009 15.7612 32.4249 15.9478C28.7033 18.2164 25.0429 20.4179 21.4141 22.6604H21.4216Z" fill="#F6F7FB"/>
<path d="M37.4116 32.4213C34.8413 31.8989 32.2804 31.3355 29.7287 30.731C29.1511 30.5948 28.8726 30.6751 28.5717 31.2161C26.748 34.4885 24.8798 37.7348 23.0264 40.9904C22.6661 41.6228 22.3114 42.2609 21.9121 42.9904C22.1962 42.9754 22.3448 42.9736 22.4915 42.9605C26.7629 42.578 31.0342 42.1788 35.3167 41.8318C35.9184 41.7833 36.158 41.593 36.2787 41.0127C36.8136 38.4344 37.38 35.8616 37.9501 33.2926C38.0671 32.7721 38.0151 32.5426 37.4116 32.4213ZM23.5761 41.9363C24.9421 40.7633 26.4617 39.784 28.0926 39.0258C26.7214 40.1898 25.2027 41.1659 23.5761 41.9288V41.9363ZM24.3858 40.7366L24.0905 40.5687L28.5587 32.6545L28.854 32.8225L24.3858 40.7366ZM35.495 33.0706C34.7225 33.7777 30.5755 32.9381 30.2598 31.9512L35.495 33.0706ZM33.0232 34.8225C32.2599 34.9419 31.5542 34.7124 30.843 34.4195C31.5988 34.3336 32.3064 34.593 33.0232 34.815V34.8225ZM33.9703 40.3672C32.5218 39.6489 31.0714 38.9363 29.6247 38.2142C29.3814 38.0911 29.439 37.8411 29.439 37.6303C29.439 35.8654 29.439 34.0986 29.439 32.3504C29.6878 33.6564 29.985 34.9885 30.1818 36.3411C30.3044 37.1601 30.6127 37.7478 31.3425 38.1975C32.2952 38.7851 33.1718 39.5034 34.0799 40.1601C34.052 40.2217 34.0112 40.2907 33.9703 40.3598V40.3672ZM32.1281 36.3859C33.5896 35.2665 35.079 34.1956 36.7708 33.4568C35.3279 34.5986 33.8329 35.6601 32.1281 36.3859Z" fill="#F6F7FB"/>
<path d="M13.3077 31.015C13.0997 30.6418 12.8954 30.5896 12.4942 30.6829C9.84414 31.2911 7.18846 31.8825 4.52722 32.4366C4.02766 32.5411 3.93482 32.7295 4.03696 33.1829C4.6331 35.8471 5.22922 38.5112 5.79192 41.1829C5.88664 41.6325 6.05749 41.7762 6.50877 41.8135C9.09758 42.0243 11.6845 42.278 14.2715 42.5094C16.1695 42.6791 18.0656 42.8359 19.9765 43C19.9765 42.8526 19.9988 42.7818 19.9765 42.737C17.753 38.8303 15.53 34.9229 13.3077 31.015ZM11.6976 31.9478C11.7365 32.39 11.6511 32.6269 11.2481 32.6773C9.69186 32.875 8.19687 33.6661 6.59233 33.3844L6.5459 33.0672L11.6976 31.9478ZM11.185 34.3732C10.4941 34.7799 9.74014 34.8694 8.96758 34.8526C9.66431 34.5361 10.4203 34.3726 11.185 34.3732ZM5.24223 33.4403C6.96741 34.2495 8.58205 35.2778 10.0466 36.5C8.29532 35.7295 6.73163 34.6437 5.24037 33.4478L5.24223 33.4403ZM12.238 38.2911C10.9045 38.9347 9.58229 39.5971 8.24888 40.2482C8.12445 40.3097 7.95174 40.2706 7.69175 40.2836C8.76701 39.5131 9.73457 38.7575 10.7541 38.1082C11.393 37.7053 11.666 37.1903 11.7811 36.4739C12.0058 35.0784 12.2974 33.6941 12.5537 32.3433C12.5537 34.1157 12.5537 35.9049 12.5537 37.6941C12.5611 37.9609 12.5147 38.1623 12.2361 38.2948L12.238 38.2911ZM13.4599 32.6754C14.9159 35.2463 16.3713 37.8184 17.826 40.3918L17.5307 40.5616L13.1758 32.862L13.4599 32.6754ZM13.8908 39.0187C15.5733 39.7314 17.0479 40.8004 18.4556 41.9198C16.8139 41.1586 15.2786 40.1845 13.8889 39.0224L13.8908 39.0187Z" fill="#F6F7FB"/>
</g>
<defs>
<filter id="filter0_d_97_366" x="0" y="0" width="42" height="51" filterUnits="userSpaceOnUse" color-interpolation-filters="sRGB">
<feFlood flood-opacity="0" result="BackgroundImageFix"/>
<feColorMatrix in="SourceAlpha" type="matrix" values="0 0 0 0 0 0 0 0 0 0 0 0 0 0 0 0 0 0 127 0" result="hardAlpha"/>
<feOffset dy="4"/>
<feGaussianBlur stdDeviation="2"/>
<feComposite in2="hardAlpha" operator="out"/>
<feColorMatrix type="matrix" values="0 0 0 0 0 0 0 0 0 0 0 0 0 0 0 0 0 0 0.25 0"/>
<feBlend mode="normal" in2="BackgroundImageFix" result="effect1_dropShadow_97_366"/>
<feBlend mode="normal" in="SourceGraphic" in2="effect1_dropShadow_97_366" result="shape"/>
</filter>
<clipPath id="clip0_97_366">
<rect width="34" height="43" fill="white" transform="translate(4)"/>
</clipPath>
</defs>
</svg>
