<svg width="44" height="36" viewBox="0 0 44 36" fill="none" xmlns="http://www.w3.org/2000/svg">
<g clip-path="url(#clip0_97_472)">
<path d="M43.7349 14.592C42.3439 9.47015 36.0019 7.32494 31.7396 10.5227C30.6366 11.3507 29.8895 12.4443 29.2241 13.6146C28.8604 14.2557 28.8346 14.2557 28.465 13.624C27.8632 12.5894 27.2201 11.594 26.2805 10.807C22.252 7.41798 15.9599 9.05443 14.1691 13.9962C13.2819 16.4427 13.5742 18.8347 14.6686 21.1583C15.9968 23.9753 17.9707 26.3382 20.1028 28.5722C22.5959 31.1886 25.3692 33.5012 28.2698 35.6669C28.8716 36.1167 28.8716 36.115 29.4803 35.6669C32.9242 33.1264 36.1386 30.3316 39.0083 27.1586C40.2316 25.8217 41.3216 24.3702 42.2631 22.8246C43.0891 21.4568 43.6787 19.9613 44.0074 18.4002V15.5831C43.9128 15.2508 43.822 14.9204 43.7349 14.592Z" fill="#F6F7FB"/>
<path d="M14.0755 24.5854C12.5023 22.1355 11.3898 19.5489 11.511 16.5483C11.6348 13.494 12.8504 10.9877 15.2473 9.08576C17.2056 7.53212 19.4675 6.86628 21.9804 7.03701C24.5165 7.21286 26.6227 8.28248 28.3954 10.0436C28.7823 10.4277 28.7694 10.4533 29.1477 10.0623C30.5876 8.57528 32.3105 7.59358 34.3505 7.17188C34.8956 7.05835 34.9411 6.97725 34.7632 6.4386C34.2319 4.78899 33.2343 3.32578 31.8892 2.22329C29.709 0.425511 27.1987 -0.295825 24.4013 0.106243C21.664 0.499774 19.5217 1.89122 17.9424 4.14229C17.6415 4.56911 17.6123 4.56911 17.2985 4.12948C15.2103 1.22708 12.381 -0.170339 8.78752 0.0422194C4.62316 0.288923 1.0219 3.42864 0.202617 7.49115C0.13556 7.82521 0.0696464 8.15955 0.00488281 8.49418V11.0551C0.0332527 11.1644 0.0719389 11.2728 0.0908522 11.3838C0.304287 12.6332 0.695645 13.8462 1.25316 14.9862C2.77482 18.1805 5.04957 20.8251 7.46961 23.3587C9.01706 24.9807 10.6986 26.4617 12.4034 27.9155C13.968 29.2498 15.6049 30.4944 17.2581 31.7176C17.534 31.9225 17.761 31.9242 18.0241 31.7074C18.2665 31.5077 18.533 31.3386 18.7875 31.1551C19.2474 30.8222 19.2457 30.8051 18.8425 30.3928C17.0758 28.5976 15.433 26.7042 14.0755 24.5854ZM7.46789 4.004C7.20998 3.8512 6.92198 3.68644 6.91855 3.34925C6.91855 2.99242 7.1988 2.78584 7.48594 2.66633C8.90873 2.06878 10.3461 2.06878 11.7689 2.66633C12.0561 2.78669 12.3329 2.99584 12.3432 3.34925C12.3535 3.73595 12.0458 3.91437 11.7483 4.05778C11.0924 4.37277 10.3797 4.44021 9.65409 4.49399C8.90787 4.41972 8.14361 4.40094 7.46445 4.004H7.46789Z" fill="#F6F7FB"/>
</g>
<defs>
<clipPath id="clip0_97_472">
<rect width="44" height="36" fill="white"/>
</clipPath>
</defs>
</svg>
