<svg width="43" height="30" viewBox="0 0 43 30" fill="none" xmlns="http://www.w3.org/2000/svg">
<path d="M6.66522 9.88935C5.18265 9.36599 3.80212 8.88183 2.42352 8.39179C1.98067 8.23302 1.38572 8.14481 1.3992 7.54305C1.41075 7.0138 1.95949 6.90208 2.37731 6.75702C8.77163 4.53813 15.166 2.32903 21.5564 0.100336C22.0127 -0.0584371 22.4229 -0.0153136 22.8522 0.135618C29.1118 2.34275 35.3713 4.54793 41.6289 6.75898C42.1238 6.93344 42.8439 7.00008 42.8131 7.67634C42.788 8.25262 42.1141 8.37023 41.6405 8.53685C35.4348 10.7067 29.2234 12.8629 23.0197 15.0387C22.573 15.1955 22.1803 15.2465 21.7259 15.0877C18.3853 13.9175 15.0369 12.7649 11.5558 11.5594C13.9298 10.5891 16.198 9.66197 18.4642 8.73286C19.7042 8.22518 20.9384 7.70182 22.186 7.20982C22.8099 6.96284 23.1853 6.58061 22.9177 5.87887C22.6308 5.12617 22.0878 5.1301 21.4255 5.40452C17.3263 7.10593 13.2174 8.78187 9.11821 10.4813C8.0342 10.9302 7.47005 11.8887 7.01565 12.906C6.65559 13.7097 6.51889 14.5839 6.41492 15.4562C6.34945 16.0109 6.39759 16.4774 6.85199 16.944C7.54129 17.6476 7.55862 18.6669 6.92323 19.4373C6.56702 19.8685 6.5497 20.2664 6.56125 20.7682C6.60553 22.7186 6.85199 24.6807 6.38411 26.6134C6.27821 27.0525 6.14728 27.4955 5.95474 27.9012C4.79564 30.3514 2.6642 30.6827 0.781137 28.7559C0.326738 28.2913 0.811944 28.111 0.975604 27.8934C2.41389 25.996 3.55374 23.9554 4.11211 21.5993C4.30273 20.7957 4.46639 20.1449 3.71548 19.4392C2.91643 18.6885 3.13785 17.2831 4.05243 16.6088C4.47024 16.301 4.60887 16.0011 4.62428 15.5013C4.70899 12.7845 4.99396 12.0259 6.66522 9.88739V9.88935Z" fill="#F6F7FB"/>
<path d="M9.47949 13.4796C13.6041 14.8199 17.5887 16.1001 21.5595 17.4142C22.3111 17.662 22.9857 17.6732 23.7392 17.4198C27.8264 16.0494 31.9274 14.7148 36.129 13.3331C36.129 15.597 36.1822 17.7971 36.1013 19.9916C36.0717 20.7856 35.3498 21.2493 34.6258 21.6041C31.4184 23.1828 28 24.1045 24.4158 24.3617C19.6994 24.6977 15.1506 24.0313 10.9057 21.9232C9.70831 21.3282 9.60179 21.071 10.1541 19.9465C10.5841 19.0718 10.7104 18.0994 10.1285 17.3504C9.19347 16.1489 9.58996 14.8649 9.48147 13.4796H9.47949Z" fill="#F6F7FB"/>
</svg>
