<svg width="56" height="52" viewBox="0 0 56 52" fill="none" xmlns="http://www.w3.org/2000/svg">
<g clip-path="url(#clip0_97_392)">
<path d="M18.1706 22.1262C18.3202 22.3443 18.5396 22.5066 18.7938 22.5872C19.6706 22.8935 20.5128 23.289 21.3066 23.7673C24.8569 25.9184 27.108 28.9915 28.1611 33.0204C28.8275 32.4442 29.6317 32.0449 30.4979 31.8603C29.6458 30.8123 29.5336 29.6384 29.6333 28.4076C29.6925 27.667 29.3747 27.0355 28.9556 26.4378C25.9988 22.2215 23.0457 18.0021 20.0961 13.7797C18.0024 10.7875 15.9081 7.79633 13.8133 4.8062C12.9752 3.61384 11.6729 3.09754 10.3861 3.40946C8.15057 3.95186 7.20495 6.40574 8.53536 8.32643C11.7243 12.933 14.9584 17.5242 18.1706 22.1262ZM10.8488 8.24501C10.894 8.15307 10.9657 8.07632 11.0549 8.02439C11.1441 7.97246 11.2469 7.94765 11.3504 7.95306C11.6448 7.95306 11.7897 8.12362 11.9221 8.32183C13.535 10.7086 15.1448 13.0949 16.7515 15.4806C16.9727 15.8094 17.0147 16.1398 16.6393 16.378C16.2638 16.6161 15.9834 16.4241 15.7653 16.0999C14.1566 13.7121 12.5468 11.3243 10.936 8.93645C10.7896 8.71519 10.7008 8.49546 10.8503 8.24347L10.8488 8.24501ZM10.0698 6.00164C10.4203 6.00164 10.774 6.41958 10.7506 6.7991C10.7288 7.14637 10.5107 7.31385 10.1836 7.3369C9.85641 7.35995 9.45759 6.91127 9.46071 6.56862C9.4656 6.41429 9.53195 6.26807 9.64538 6.16166C9.75881 6.05524 9.91019 5.9972 10.0667 6.0001L10.0698 6.00164Z" fill="#F6F7FB"/>
<path d="M37.8211 25.6468C40.781 27.337 43.8515 27.1987 46.7803 25.7021C52.8699 22.5891 55.5042 17.3218 56.0012 10.8098C55.9901 9.72865 55.8569 8.65204 55.6039 7.59999C54.9309 4.83419 53.5787 2.50017 50.9755 1.08654C48.1387 -0.450014 45.2411 -0.245652 42.3669 1.02969C35.7834 3.94914 31.6053 12.5953 33.4326 19.4852C34.1196 22.0805 35.4157 24.2777 37.8211 25.6468ZM41.5599 3.35603C43.7829 1.93933 46.2615 1.44917 48.8475 2.32193C51.8588 3.33759 53.3777 5.63013 54.0959 8.54958C54.299 9.43564 54.4035 10.3409 54.4075 11.2493C53.9853 16.8285 51.7077 21.326 46.478 23.975C43.3109 25.5792 39.9102 25.152 37.5251 23.0039C35.7289 21.3875 34.8237 19.2855 34.6866 16.953C34.3377 11.1586 36.5732 6.53208 41.5552 3.35603H41.5599Z" fill="#F6F7FB"/>
<path d="M27.3524 35.8581C27.3618 35.5016 27.3135 35.3449 26.8415 35.4063C23.7024 35.8166 20.8827 35.0314 18.4291 33.0462C18.1082 32.7865 17.9758 32.871 17.7421 33.1061C16.7902 34.0618 15.8337 35.0145 14.8538 35.9426C14.5672 36.2146 14.5423 36.3575 14.8429 36.6479C17.7 39.4352 20.5441 42.2353 23.3753 45.0482C23.6868 45.3647 23.8302 45.3555 24.1137 45.0159C26.1085 42.6933 27.2478 39.7733 27.3462 36.7308C27.3509 36.4696 27.3431 36.1638 27.3524 35.8581Z" fill="#F6F7FB"/>
<path d="M13.3354 35.1411C13.4911 35.2948 13.5924 35.6021 13.9133 35.2779C14.9431 34.2346 15.9946 33.2128 17.0446 32.1894C17.2004 32.0358 17.2502 31.9359 17.0789 31.7285C14.9992 29.27 14.1595 26.4627 14.6035 23.2928C14.6595 22.8841 14.4991 22.8626 14.186 22.8533C12.8848 22.8049 11.5834 22.94 10.3209 23.2544C8.12645 23.7958 6.10591 24.8744 4.44629 26.3905L6.6117 28.5201C8.85189 30.7297 11.0931 32.9367 13.3354 35.1411Z" fill="#F6F7FB"/>
<path d="M0.664001 37.1841C3.7797 36.8015 6.57137 37.6451 9.00785 39.5904C9.23374 39.7717 9.35212 39.7732 9.5562 39.5688C10.5485 38.5701 11.5456 37.5713 12.5691 36.6094C12.8479 36.3467 12.7825 36.2268 12.5488 35.9948C9.68447 33.188 6.82842 30.371 3.98067 27.5438C3.69558 27.261 3.54758 27.2365 3.27652 27.5576C1.21613 29.9336 0.0627293 32.9454 0.01593 36.0716C0.0268456 36.2436 0.0268456 36.416 0.01593 36.5879C-0.0494996 37.1027 0.106291 37.2456 0.664001 37.1841Z" fill="#F6F7FB"/>
<path d="M14.0112 37.4199C13.7183 37.1295 13.5797 37.2033 13.3382 37.4476C12.4035 38.3926 11.4563 39.3299 10.492 40.2456C10.2038 40.5192 10.1509 40.6682 10.4359 41.0139C12.2353 43.202 13.0313 45.7173 12.8693 48.5338C12.8475 48.9195 12.5702 49.4557 12.8428 49.6539C13.1155 49.8522 13.6607 49.7431 13.9037 49.7569C17.2998 49.6294 20.1351 48.5553 22.5996 46.5117C22.8816 46.2766 22.8847 46.1614 22.6246 45.9063C19.7425 43.0883 16.8714 40.2595 14.0112 37.4199Z" fill="#F6F7FB"/>
<path d="M48.3107 38.4586C44.3211 38.2389 40.3392 37.9039 36.3542 37.6304C35.2793 37.5551 35.2965 37.5889 35.0332 38.6277C34.9381 39.0041 35.0145 39.1531 35.3946 39.2884C39.5436 40.7594 43.6865 42.2447 47.8231 43.7444C47.8905 43.7769 47.9642 43.7947 48.0392 43.7965C48.1142 43.7984 48.1888 43.7843 48.2577 43.7551C49.7689 43.119 51.2846 42.4967 52.7412 41.8928C51.9623 41.0907 51.1834 40.3056 50.4278 39.482C50.1701 39.1715 49.8476 38.9194 49.4823 38.7428C49.117 38.5662 48.7174 38.4693 48.3107 38.4586Z" fill="#F6F7FB"/>
<path d="M48.7593 32.8135C44.698 33.1039 40.632 33.3513 36.5676 33.5987C36.2373 33.6187 36.0878 33.7109 36.0317 34.0366C35.9325 34.6579 35.7993 35.2734 35.6329 35.8805C35.5067 36.3184 35.6095 36.4306 36.0613 36.4628C40.2602 36.7517 44.4571 37.0534 48.6518 37.3679C49.0592 37.4185 49.4723 37.3365 49.828 37.1343C50.9746 36.426 52.1149 35.7053 53.3316 34.9417C52.682 34.4684 52.0589 34.075 51.5074 33.5972C50.702 32.9042 49.8015 32.7382 48.7593 32.8135Z" fill="#F6F7FB"/>
<path d="M48.2764 45.6206C47.9648 45.1566 47.5038 44.8097 46.9678 44.6357C45.1997 44.0211 43.4409 43.3819 41.6711 42.7503C39.4901 41.9682 37.3092 41.1923 35.1282 40.3964C34.7745 40.2673 34.6328 40.2919 34.5767 40.7037C34.4972 41.2714 34.3738 41.8324 34.2075 42.3816C34.0907 42.7749 34.2168 42.9547 34.5627 43.1376C38.2766 45.1074 41.9864 47.086 45.692 49.0733C46.0632 49.2873 46.4848 49.4017 46.9148 49.4052C47.9524 49.2515 48.9401 48.9089 49.9558 48.6784C50.3546 48.5877 50.2969 48.4556 50.1116 48.2005C49.4946 47.3462 48.8731 46.4919 48.2764 45.6206Z" fill="#F6F7FB"/>
<path d="M29.484 44.1992C28.4436 44.2132 27.45 44.6274 26.7149 45.3536C25.9797 46.0798 25.5613 47.0605 25.5488 48.0867C25.548 49.1228 25.9641 50.1168 26.7057 50.8506C27.4473 51.5843 28.4538 51.9979 29.5042 52.0003C30.5437 52.0024 31.5422 51.6004 32.2831 50.8813C33.0241 50.1622 33.448 49.1841 33.4627 48.1589C33.4677 47.6405 33.3684 47.1263 33.1706 46.646C32.9729 46.1657 32.6805 45.7288 32.3106 45.3606C31.9406 44.9924 31.5003 44.7002 31.0151 44.5009C30.53 44.3015 30.0095 44.199 29.484 44.1992Z" fill="#F6F7FB"/>
<path d="M19.3098 32.2905C21.0982 33.6734 23.1265 34.351 25.5194 34.3817C25.8528 34.351 26.3154 34.308 26.7781 34.2696C27.0788 34.245 27.2065 34.1528 27.1349 33.8086C26.678 31.5127 25.6357 29.3695 24.1064 27.581C23.8556 27.2875 23.717 27.2214 23.4069 27.5333C22.0412 28.9162 20.6553 30.2802 19.2491 31.6252C18.9235 31.9294 19.0169 32.0662 19.3098 32.2905Z" fill="#F6F7FB"/>
<path d="M9.00116 41.7154C7.50407 43.2182 5.99295 44.704 4.4834 46.2006C4.50826 46.2475 4.53858 46.2913 4.57375 46.3312C4.68747 46.4357 4.80587 46.534 4.92582 46.6385C6.70564 48.1004 8.83075 49.0956 11.1043 49.5318C11.5155 49.6133 11.6059 49.4827 11.6495 49.1492C12 46.3927 11.3192 43.925 9.56198 41.7415C9.347 41.468 9.23172 41.4865 9.00116 41.7154Z" fill="#F6F7FB"/>
<path d="M8.14119 40.9583C8.42472 40.6833 8.40914 40.5527 8.10536 40.316C6.3372 38.9331 4.32756 38.2524 1.90044 38.2002C1.61847 38.2263 1.1558 38.2924 0.691563 38.3062C0.275617 38.317 0.163435 38.4783 0.246001 38.8732C0.712849 41.1705 1.76893 43.3115 3.31342 45.0916C3.55956 45.3774 3.68886 45.3452 3.93656 45.0916C5.32823 43.7026 6.72978 42.3248 8.14119 40.9583Z" fill="#F6F7FB"/>
<path d="M22.6016 26.7253C22.9272 26.418 22.8322 26.275 22.5424 26.0384C21.1476 24.8745 19.5281 24.0016 17.7816 23.4724C17.2083 23.3018 16.6226 23.1651 16.1241 23.0391C15.8125 23.0391 15.8125 23.0391 15.7596 23.374C15.3592 26.1398 16.054 28.5983 17.7848 30.7986C18.0293 31.106 18.168 31.0937 18.4375 30.8232C19.8115 29.4434 21.1995 28.0774 22.6016 26.7253Z" fill="#F6F7FB"/>
<path d="M28.4614 35.2914C28.6109 36.8925 28.461 38.507 28.019 40.0547C27.7635 40.9904 27.8741 41.224 28.7777 41.6189C29.1239 41.7766 29.4969 41.8693 29.8775 41.8924C30.0972 41.9769 30.1688 41.857 30.2202 41.6189C30.8195 38.8377 31.4281 36.0586 32.046 33.2815C32.113 32.9742 31.9837 32.9189 31.7173 32.922C30.8481 32.9327 30.024 33.091 29.2964 33.5935C28.7045 34.0099 28.3804 34.52 28.4614 35.2914Z" fill="#F6F7FB"/>
<path d="M34.6914 33.4719C34.3656 33.4224 34.0434 33.3515 33.7271 33.2599C33.3345 33.137 33.2068 33.2799 33.1289 33.6532C32.6273 36.0687 32.1038 38.4795 31.5851 40.8919C31.3171 42.1427 31.3218 42.1212 32.5697 42.4131C32.9778 42.5084 33.0572 42.3624 33.1273 42.0182C33.3688 40.8197 33.6445 39.6258 33.9063 38.4304C34.2412 36.8785 34.5715 35.325 34.9111 33.7424C34.9828 33.5687 34.8815 33.5057 34.6914 33.4719Z" fill="#F6F7FB"/>
<path d="M37.3853 26.721C37.1765 26.615 37.0737 26.5919 36.9584 26.8439C36.1795 28.5479 35.3772 30.2443 34.578 31.9391C34.4908 32.125 34.4472 32.2772 34.712 32.3125C35.1513 32.3724 35.5735 32.563 36.1141 32.4661C36.3509 32.3709 36.7606 32.6321 36.9787 32.1419C37.6221 30.6914 38.3044 29.2563 38.9883 27.8227C39.1067 27.5722 39.0974 27.4754 38.8107 27.3694C38.3232 27.1808 37.8472 26.9643 37.3853 26.721Z" fill="#F6F7FB"/>
<path d="M43.1305 48.9995C42.6008 48.726 42.0743 48.4479 41.5539 48.1559C41.4843 48.1086 41.4008 48.0852 41.3163 48.0893C41.2318 48.0935 41.1511 48.125 41.0866 48.179C40.1851 48.8018 39.2774 49.4164 38.3635 50.0229C38.0597 50.2257 38.0675 50.4362 38.2856 50.6836C38.6906 51.1445 39.2094 51.3581 39.9992 51.3858C41.1801 51.0785 42.2035 50.2088 43.2208 49.336C43.386 49.1946 43.3003 49.0886 43.1305 48.9995Z" fill="#F6F7FB"/>
<path d="M38.7624 48.2479C39.1628 48.2678 39.5928 47.7746 40.0087 47.5011C40.0352 47.4842 40.0461 47.4458 40.0928 47.372L37.0332 45.7402C37.27 46.2478 37.562 46.7285 37.9041 47.1738C38.186 47.561 38.3823 48.2356 38.7624 48.2479Z" fill="#F6F7FB"/>
<path d="M48.0999 7.06813C47.8179 7.69658 47.5391 8.32657 47.2182 8.93505C47.0499 9.25618 47.1777 9.35144 47.4518 9.46515C47.9519 9.67105 48.438 9.90767 48.9287 10.1335C50.1376 10.6852 50.1376 10.6852 50.7077 9.46669C50.8947 9.06872 51.0785 8.66767 51.2639 8.26971C51.2935 8.10529 51.1533 8.08994 51.0551 8.04538C50.2123 7.66124 49.3618 7.29246 48.5268 6.89296C48.2744 6.76082 48.1949 6.84994 48.0999 7.06813Z" fill="#F6F7FB"/>
<path d="M43.321 7.58862C44.1 7.91898 44.8711 8.28467 45.6438 8.635C45.7326 8.67495 45.8214 8.71183 45.9195 8.75332C46.0987 8.75332 46.1033 8.58583 46.1532 8.48135C46.4523 7.86672 46.7187 7.22446 47.0349 6.61291C47.1907 6.31636 47.0786 6.22262 46.8215 6.11046C46.0254 5.76473 45.2325 5.40979 44.4505 5.03487C44.1654 4.89658 44.0595 4.97186 43.9457 5.23461C43.6887 5.83233 43.4192 6.42545 43.1154 7.00013C42.9518 7.30897 42.9908 7.45033 43.321 7.58862Z" fill="#F6F7FB"/>
<path d="M45.2901 9.73529C44.4349 9.34193 43.5765 8.96701 42.7181 8.56136C42.4704 8.44458 42.3894 8.54907 42.2975 8.75651C42.0093 9.39879 41.7055 10.0364 41.397 10.671C41.2942 10.88 41.2911 10.9784 41.5528 11.0921C42.3847 11.4455 43.2104 11.8173 44.0205 12.2184C44.332 12.372 44.4162 12.2414 44.5221 12.0032C44.7947 11.3886 45.0814 10.7909 45.3618 10.1855C45.4023 10.0995 45.4412 10.0119 45.4755 9.93351C45.4848 9.79215 45.3742 9.77063 45.2901 9.73529Z" fill="#F6F7FB"/>
<path d="M40.3141 13.0072C40.0882 13.4912 39.6037 14.0536 39.7158 14.4454C39.8467 14.9064 40.6334 14.9648 41.1304 15.2137C41.6273 15.4626 42.2598 15.9312 42.6259 15.7883C42.992 15.6454 43.1478 14.8756 43.3908 14.3793C43.5326 14.0858 43.6697 13.7908 43.8333 13.4466C43.7332 13.3787 43.6291 13.3166 43.5217 13.2607C42.9432 12.9923 42.3637 12.727 41.7831 12.4648C40.7845 12.0084 40.7814 12.0084 40.3141 13.0072Z" fill="#F6F7FB"/>
<path d="M38.9699 15.8569C38.7456 16.3409 38.5213 16.8264 38.2938 17.3089C37.9324 18.0772 37.9324 18.0772 38.6864 18.4229C38.9497 18.5428 39.2098 18.6672 39.4762 18.7763C39.9872 18.9868 40.5667 19.5338 40.9671 19.3541C41.3674 19.1743 41.4874 18.4321 41.7273 17.9374C41.8691 17.6454 41.9999 17.3504 42.1277 17.0754C42.1604 16.9217 42.0389 16.891 41.9719 16.8587C41.0979 16.4577 40.2178 16.0704 39.3454 15.6663C39.1039 15.5557 39.0447 15.6971 38.9699 15.8569Z" fill="#F6F7FB"/>
<path d="M48.1441 14.0793L48.3311 14.1654C48.4869 14.2069 48.5258 14.1101 48.5647 14.0271C48.8919 13.3372 49.2113 12.6442 49.5415 11.9558C49.6506 11.73 49.5228 11.6485 49.3499 11.5748C48.5242 11.2044 47.6955 10.8418 46.8776 10.4531C46.6455 10.3425 46.538 10.3778 46.4383 10.6067C46.1485 11.2506 45.8588 11.8959 45.541 12.5259C45.4117 12.784 45.4755 12.8885 45.7201 12.9961C46.5318 13.3449 47.3372 13.7152 48.1441 14.0793Z" fill="#F6F7FB"/>
<path d="M44.7959 14.1163C44.4844 14.7893 44.1728 15.4685 43.8456 16.1415C43.7522 16.3366 43.7833 16.4273 44.0014 16.521C44.852 16.8867 45.6979 17.2662 46.5314 17.6688C46.7962 17.7979 46.8663 17.6811 46.9551 17.4875C47.2402 16.8621 47.5128 16.2291 47.8291 15.6175C47.9755 15.3333 47.9085 15.2195 47.639 15.1074C47.0688 14.8677 46.5096 14.6065 45.9472 14.3529C45.6481 14.2177 45.3521 14.0794 45.095 13.9611C44.891 13.895 44.8427 14.0164 44.7959 14.1163Z" fill="#F6F7FB"/>
<path d="M46.0283 18.7072C45.2042 18.3277 44.3708 17.9681 43.5545 17.5747C43.2725 17.4395 43.1868 17.544 43.0871 17.773C42.8067 18.4014 42.52 19.0283 42.2085 19.6429C42.0823 19.8934 42.1275 19.9979 42.383 20.1039C43.1993 20.4542 44.0125 20.8107 44.8086 21.2025C45.1201 21.3562 45.2043 21.2425 45.3149 20.9936C45.5875 20.379 45.8804 19.7797 46.1639 19.1728C46.2044 19.0867 46.2387 18.9991 46.2745 18.9146C46.2714 18.7533 46.1218 18.7456 46.0283 18.7072Z" fill="#F6F7FB"/>
<path d="M36.3541 13.0498C36.9912 13.3248 37.6253 13.6121 38.25 13.9148C38.479 14.0255 38.5849 13.9778 38.6831 13.7612C38.9697 13.1143 39.2657 12.4705 39.5773 11.8343C39.6816 11.6223 39.691 11.5055 39.4386 11.3949C38.6939 11.0737 37.9602 10.728 37.2233 10.3915C37.0675 10.3208 36.9414 10.2901 36.8604 10.4929C36.5591 11.2164 36.3133 11.9612 36.125 12.7209C36.0612 12.8746 36.1578 12.9652 36.3541 13.0498Z" fill="#F6F7FB"/>
<path d="M51.0583 16.6796C50.8667 16.592 50.6797 16.4922 50.485 16.4092C50.0177 16.2048 49.4366 15.75 49.0829 15.8806C48.7293 16.0112 48.5984 16.7242 48.3757 17.1836C48.2199 17.5093 48.0641 17.8382 47.9083 18.167C47.8959 18.2915 47.9925 18.3207 48.0735 18.3668C48.2598 18.4671 48.4523 18.5559 48.6499 18.6326C49.2387 18.8277 49.8182 19.4792 50.3635 19.2472C50.8791 19.0198 51.1191 18.2761 51.4291 17.726C51.8201 17.0238 51.8201 17.0238 51.0583 16.6796Z" fill="#F6F7FB"/>
<path d="M52.7564 13.1248C52.1753 12.8652 51.5927 12.6101 51.0225 12.3304C50.7701 12.2075 50.6658 12.2552 50.5552 12.5102C50.2779 13.1586 49.9756 13.7994 49.6578 14.4294C49.541 14.6614 49.5908 14.752 49.8136 14.8488C50.538 15.1562 51.2593 15.4865 51.9713 15.8261C52.2143 15.9413 52.2953 15.8891 52.3825 15.6463C52.6395 14.946 52.8395 14.2267 52.9807 13.4951C53.0851 13.2677 52.9262 13.2001 52.7564 13.1248Z" fill="#F6F7FB"/>
<path d="M38.5739 9.73895C38.9945 9.93256 39.4151 10.1216 39.8373 10.3121L40.1287 10.4458C40.2751 10.4458 40.2922 10.2921 40.3436 10.1846C40.541 9.77481 40.7362 9.36044 40.9294 8.94147C41.3967 7.95193 41.3967 7.95194 40.381 7.50634C38.9789 6.89172 38.9789 6.89173 38.1128 8.19011C37.4289 9.2196 37.4289 9.2196 38.5739 9.73895Z" fill="#F6F7FB"/>
<path d="M40.1752 20.361C39.3604 20.0107 38.5582 19.6281 37.7496 19.2593C37.6795 19.227 37.6063 19.204 37.5284 19.1748C37.2729 19.1871 36.8632 20.3088 37.0283 20.593C37.5388 21.4561 38.2395 22.195 39.0785 22.755C39.3028 22.9086 39.4165 22.9194 39.5365 22.6382C39.7889 22.0389 40.0615 21.4474 40.3606 20.8696C40.5008 20.59 40.4603 20.4839 40.1752 20.361Z" fill="#F6F7FB"/>
<path d="M44.3316 22.2374C43.5184 21.884 42.7067 21.526 41.906 21.145C41.6521 21.0251 41.5337 21.062 41.4231 21.3124C41.1598 21.9055 40.8825 22.494 40.5959 23.0779C40.4712 23.333 40.4619 23.4575 40.803 23.5389C41.3866 23.6778 41.9836 23.7546 42.5837 23.7679C43.9858 23.7679 44.1026 23.691 44.5185 22.7092C44.6291 22.4495 44.5762 22.3435 44.3316 22.2374Z" fill="#F6F7FB"/>
<path d="M49.0397 5.86828C49.7984 6.19403 50.5415 6.55513 51.3017 6.87781C51.47 6.95003 51.6756 7.21124 51.8579 6.97154C52.0215 6.75796 52.1336 6.51057 51.9327 6.20326C51.3546 5.26244 50.5524 4.47496 49.5959 3.90918C49.3497 4.42392 49.1285 4.92485 48.8715 5.41347C48.739 5.6501 48.7874 5.75919 49.0397 5.86828Z" fill="#F6F7FB"/>
<path d="M45.0861 4.05066C45.8323 4.41021 46.5925 4.74364 47.3465 5.08937C47.5272 5.17234 47.6799 5.26914 47.7968 4.99102C48.0195 4.46552 48.2641 3.95078 48.5149 3.42221C47.412 3.02885 46.3199 3.00734 45.2107 3.15331C44.8742 3.19787 44.7512 3.42681 44.6795 3.68342C44.5954 4.00609 44.9256 3.97383 45.0861 4.05066Z" fill="#F6F7FB"/>
<path d="M47.2276 19.6248C46.9643 20.1964 46.6808 20.7603 46.4331 21.3396C46.363 21.5025 46.0919 21.7406 46.3396 21.8651C46.6683 22.0295 46.9939 22.4336 47.4301 22.1417C48.2156 21.6236 48.9267 21.0034 49.5441 20.2978C48.8882 20.0013 48.2511 19.7354 47.6342 19.4266C47.3616 19.2929 47.3132 19.4404 47.2276 19.6248Z" fill="#F6F7FB"/>
<path d="M36.5733 17.4802C36.8008 17.5539 36.9098 17.5601 37.0111 17.3173C37.209 16.8425 37.4457 16.3831 37.6638 15.916C38.0502 15.0893 38.0486 15.0893 37.1965 14.7021C35.7664 14.0475 35.7664 14.0475 35.7804 15.6148C35.7968 15.863 35.7968 16.1119 35.7804 16.36C35.7025 16.9793 36.0141 17.2958 36.5733 17.4802Z" fill="#F6F7FB"/>
<path d="M40.046 6.08011C40.6147 6.36591 41.202 6.61638 41.7893 6.8822C41.9575 6.86684 41.9669 6.7101 42.0214 6.59793C42.3111 5.99406 42.6056 5.39174 42.8735 4.77865C42.928 4.65419 43.1633 4.47135 42.9078 4.34535C42.7193 4.24855 42.5355 4.07952 42.2675 4.23778C41.4964 4.68229 40.7793 5.21226 40.1302 5.81737C40.0585 5.88651 39.8934 6.00328 40.046 6.08011Z" fill="#F6F7FB"/>
<path d="M51.4649 11.2847C52.0101 11.5106 52.546 11.7626 53.1613 12.0361C53.2368 11.0801 53.1966 10.1186 53.0414 9.17194C52.9931 8.85234 52.7454 8.78627 52.5226 8.71097C52.2219 8.60803 52.2578 8.91841 52.1877 9.0567C51.8886 9.65135 51.6191 10.2614 51.3262 10.8591C51.2281 11.0635 51.2187 11.1833 51.4649 11.2847Z" fill="#F6F7FB"/>
</g>
<defs>
<clipPath id="clip0_97_392">
<rect width="56" height="52" fill="white"/>
</clipPath>
</defs>
</svg>
